<svg width="81" height="75" viewBox="0 0 81 75" fill="none" xmlns="http://www.w3.org/2000/svg">
<path fill-rule="evenodd" clip-rule="evenodd" d="M36 0L41.5457 3.29665C43.7545 2.00443 46.472 1.24236 49.4103 1.24235C52.344 1.24234 55.0576 2.00201 57.2645 3.29055L62.8 0L62.8 11.6076C62.807 11.751 62.8105 11.8952 62.8105 12.04L62.8108 65.8689L37.0101 65.869V66H0V47.4897C0 37.5507 9.99912 29.4936 22.3337 29.4936H36.0102L36.0101 12.0401C36.0101 11.9686 36.011 11.8972 36.0127 11.826H36L36 0Z" fill="#FFAAA5"/>
<path fill-rule="evenodd" clip-rule="evenodd" d="M57.2126 17L62.8771 20.5812C64.6761 19.6366 66.792 19.092 69.0564 19.092C71.4009 19.092 73.5863 19.6758 75.4254 20.683L81 17.1586L81 28.2753H80.8472C80.8823 28.5935 80.9002 28.9159 80.9002 29.2419L80.9004 54.5327C80.9004 65.491 70.7686 74.4213 58.0951 74.819V75H16V62.5C16 53.1112 25.2906 45.5 36.7511 45.5H57.2127L57.2126 29.242C57.2126 28.8617 57.2371 28.4862 57.2846 28.1167H57.2126L57.2126 17Z" fill="#FFB992"/>
</svg>
