<svg width="252" height="144" viewBox="0 0 252 144" fill="none" xmlns="http://www.w3.org/2000/svg">
<path d="M30 53C30 30.9086 47.9086 13 70 13H212C234.091 13 252 30.9086 252 53V89C252 111.091 234.091 129 212 129H70C47.9086 129 30 111.091 30 89V53Z" fill="white"/>
<path d="M213.553 136.027C212.463 136.027 211.696 135.684 211.252 134.998C210.848 134.352 210.646 133.525 210.646 132.516V86.5605C210.646 85.5514 210.848 84.7038 211.252 84.0176C211.696 83.3314 212.463 82.9883 213.553 82.9883C214.643 82.9883 215.389 83.3516 215.793 84.0781C216.197 84.7643 216.398 85.5918 216.398 86.5605V98.9727C217.125 99.2552 218.275 99.7396 219.85 100.426C221.424 101.112 223.2 101.919 225.178 102.848C227.156 103.776 229.174 104.785 231.232 105.875C233.291 106.965 235.188 108.075 236.924 109.205C238.66 110.295 240.052 111.344 241.102 112.354C242.191 113.363 242.736 114.251 242.736 115.018C242.736 116.027 242.454 116.794 241.889 117.318C241.324 117.803 240.536 118.045 239.527 118.045C238.882 118.045 238.195 117.803 237.469 117.318C236.742 116.834 236.137 116.39 235.652 115.986C232.746 113.605 229.699 111.465 226.51 109.568C223.321 107.631 219.951 105.996 216.398 104.664V132.516C216.398 133.484 216.197 134.312 215.793 134.998C215.389 135.684 214.643 136.027 213.553 136.027Z" fill="#FFAAA5"/>
<path d="M159.969 112.898C159.283 112.898 158.717 112.656 158.273 112.172C157.87 111.688 157.547 111.163 157.305 110.598C157.062 110.033 156.699 109.286 156.215 108.357C155.73 107.389 155.206 106.38 154.641 105.33C154.116 104.281 153.652 103.332 153.248 102.484C152.885 101.596 152.703 100.971 152.703 100.607C152.703 99.8001 152.925 99.235 153.369 98.9121C153.813 98.5488 154.419 98.3672 155.186 98.3672C155.71 98.3672 156.296 98.7103 156.941 99.3965C157.587 100.042 158.233 100.89 158.879 101.939C159.525 102.989 160.13 104.099 160.695 105.27C161.26 106.4 161.704 107.449 162.027 108.418C162.391 109.387 162.572 110.113 162.572 110.598C162.572 111.405 162.33 111.99 161.846 112.354C161.402 112.717 160.776 112.898 159.969 112.898ZM150.766 135.906C149.07 135.906 148.223 134.998 148.223 133.182C148.223 132.374 148.606 131.749 149.373 131.305C150.18 130.861 150.887 130.538 151.492 130.336C153.712 129.529 155.67 128.661 157.365 127.732C159.101 126.804 160.695 125.694 162.148 124.402C163.642 123.111 165.075 121.516 166.447 119.619C168.264 117.117 169.596 114.614 170.443 112.111C171.291 109.609 171.977 106.864 172.502 103.877C172.623 103.312 172.785 102.646 172.986 101.879C173.188 101.112 173.491 100.446 173.895 99.8809C174.339 99.3158 174.944 99.0332 175.711 99.0332C177.568 99.0332 178.496 99.9616 178.496 101.818C178.496 102.626 178.355 103.635 178.072 104.846C177.83 106.057 177.527 107.268 177.164 108.479C176.841 109.649 176.559 110.618 176.316 111.385C174.863 116.027 172.845 120.083 170.262 123.555C167.719 127.026 164.328 129.973 160.09 132.395C159.283 132.879 158.334 133.383 157.244 133.908C156.154 134.473 155.044 134.938 153.914 135.301C152.824 135.704 151.775 135.906 150.766 135.906ZM147.92 114.654C147.193 114.654 146.608 114.392 146.164 113.867C145.76 113.302 145.417 112.737 145.135 112.172C144.893 111.688 144.489 110.981 143.924 110.053C143.399 109.084 142.834 108.075 142.229 107.025C141.663 105.936 141.159 104.967 140.715 104.119C140.311 103.231 140.109 102.626 140.109 102.303C140.109 101.495 140.331 100.91 140.775 100.547C141.26 100.184 141.885 100.002 142.652 100.002C143.137 100.002 143.722 100.345 144.408 101.031C145.094 101.677 145.781 102.525 146.467 103.574C147.193 104.624 147.859 105.714 148.465 106.844C149.111 107.974 149.615 109.023 149.979 109.992C150.382 110.921 150.584 111.607 150.584 112.051C150.584 113.786 149.696 114.654 147.92 114.654Z" fill="#FFB992"/>
<path d="M117.223 95.0371C115.487 95.0371 114.014 94.4316 112.803 93.2207C111.592 91.9694 110.986 90.4759 110.986 88.7402C110.986 87.0046 111.612 85.5514 112.863 84.3809C114.155 83.1699 115.648 82.5645 117.344 82.5645C119.039 82.5645 120.492 83.1901 121.703 84.4414C122.914 85.6523 123.52 87.1055 123.52 88.8008C123.52 90.5365 122.894 92.0098 121.643 93.2207C120.432 94.4316 118.958 95.0371 117.223 95.0371ZM117.223 92.0098C119.402 92.0098 120.492 90.9199 120.492 88.7402C120.492 86.6413 119.402 85.5918 117.223 85.5918C115.083 85.5918 114.014 86.6615 114.014 88.8008C114.014 90.9401 115.083 92.0098 117.223 92.0098ZM119.947 132.152C119.342 132.152 118.454 131.628 117.283 130.578C116.153 129.488 114.821 128.055 113.287 126.279C111.794 124.463 110.219 122.445 108.564 120.225C106.91 118.005 105.255 115.744 103.6 113.443C101.985 111.102 100.451 108.882 98.998 106.783C97.5449 104.644 96.2936 102.787 95.2441 101.213C94.1947 99.6387 93.4479 98.4883 93.0039 97.7617C92.7617 97.3581 92.3984 96.8333 91.9141 96.1875C91.4297 95.5417 90.9049 95.2188 90.3398 95.2188C89.9766 95.2188 89.3711 95.7233 88.5234 96.7324C87.7161 97.7415 86.7474 99.0332 85.6172 100.607C84.5273 102.182 83.3568 103.857 82.1055 105.633C80.8542 107.368 79.6029 109.023 78.3516 110.598C77.1406 112.172 76.0104 113.464 74.9609 114.473C73.9115 115.482 73.0234 115.986 72.2969 115.986C71.2878 115.986 70.541 115.704 70.0566 115.139C69.5723 114.574 69.3301 113.786 69.3301 112.777C69.3301 111.97 69.653 111.183 70.2988 110.416C70.9447 109.609 71.5098 108.943 71.9941 108.418C74.4564 105.794 76.7572 103.07 78.8965 100.244C81.0358 97.4186 83.0944 94.5326 85.0723 91.5859C85.4355 91.0208 85.8796 90.4154 86.4043 89.7695C86.9694 89.0833 87.5749 88.498 88.2207 88.0137C88.9069 87.5293 89.6133 87.2871 90.3398 87.2871C91.0664 87.2871 91.793 87.5697 92.5195 88.1348C93.2865 88.6595 93.8717 89.2044 94.2754 89.7695C95.002 90.7786 95.7083 91.8079 96.3945 92.8574C97.0807 93.9069 97.7669 94.9564 98.4531 96.0059C101.844 101.092 105.315 106.036 108.867 110.84C112.419 115.643 116.274 120.265 120.432 124.705C120.916 125.23 121.441 125.876 122.006 126.643C122.611 127.369 122.914 128.136 122.914 128.943C122.914 129.952 122.672 130.74 122.188 131.305C121.743 131.87 120.997 132.152 119.947 132.152Z" fill="#FFAAA5"/>
<path fill-rule="evenodd" clip-rule="evenodd" d="M205.345 138.755L205.316 138.708C204.025 136.643 203.646 134.421 203.646 132.516V86.5605C203.646 84.6323 204.034 82.4823 205.218 80.4684L205.294 80.34L205.375 80.2148C207.524 76.893 210.971 75.9883 213.553 75.9883C216.252 75.9883 219.833 77.017 221.867 80.5986C222.997 82.5517 223.398 84.6368 223.398 86.5605V94.3389C224.847 94.9792 226.433 95.704 228.152 96.511C230.238 97.49 232.356 98.5496 234.508 99.6885C236.712 100.855 238.777 102.061 240.696 103.308C242.647 104.536 244.425 105.847 245.906 107.262C247.244 108.509 249.736 111.165 249.736 115.018C249.736 117.341 249.048 120.222 246.652 122.448L246.55 122.543L246.444 122.633C244.221 124.539 241.61 125.045 239.527 125.045C237.091 125.045 235.067 124.13 233.586 123.143C232.734 122.575 231.922 121.988 231.196 121.384C228.706 119.345 226.107 117.507 223.398 115.865V132.516C223.398 134.462 222.987 136.574 221.827 138.547C219.719 142.13 216.095 143.027 213.553 143.027C210.971 143.027 207.524 142.123 205.375 138.801L205.345 138.755ZM235.86 116.156C236.134 116.375 236.441 116.605 236.781 116.847C236.813 116.869 236.846 116.892 236.878 116.915C237.065 117.046 237.262 117.181 237.469 117.318C238.195 117.803 238.882 118.045 239.527 118.045C240.536 118.045 241.324 117.803 241.889 117.318C242.454 116.794 242.736 116.027 242.736 115.018C242.736 114.251 242.191 113.363 241.102 112.354C241.037 112.291 240.971 112.229 240.903 112.166C240.539 111.827 240.136 111.484 239.694 111.136C239.68 111.126 239.667 111.115 239.653 111.104C239.628 111.084 239.603 111.065 239.578 111.045C238.807 110.445 237.922 109.832 236.924 109.205C235.188 108.075 233.291 106.965 231.232 105.875C230.601 105.541 229.973 105.214 229.349 104.895C229.334 104.887 229.319 104.879 229.304 104.872C227.91 104.159 226.534 103.484 225.178 102.848C223.2 101.919 221.424 101.112 219.85 100.426C219.255 100.167 218.721 99.9361 218.247 99.7345C218.035 99.6442 217.835 99.5596 217.646 99.4808C217.144 99.27 216.728 99.1006 216.398 98.9727V86.5605C216.398 85.5918 216.197 84.7643 215.793 84.0781C215.389 83.3516 214.643 82.9883 213.553 82.9883C212.463 82.9883 211.696 83.3314 211.252 84.0176C210.848 84.7038 210.646 85.5514 210.646 86.5605V132.516C210.646 133.525 210.848 134.352 211.252 134.998C211.696 135.684 212.463 136.027 213.553 136.027C214.643 136.027 215.389 135.684 215.793 134.998C216.197 134.312 216.398 133.484 216.398 132.516V104.664C216.817 104.821 217.233 104.982 217.646 105.148C217.688 105.164 217.729 105.18 217.77 105.197C219.546 105.912 221.276 106.704 222.959 107.575C223.106 107.651 223.252 107.727 223.398 107.804C224.454 108.361 225.491 108.949 226.51 109.568C227.212 109.986 227.907 110.415 228.595 110.856C230.298 111.948 231.958 113.11 233.577 114.345C233.604 114.366 233.631 114.386 233.658 114.407C234.33 114.921 234.995 115.447 235.652 115.986C235.719 116.042 235.789 116.099 235.86 116.156Z" fill="white"/>
<path fill-rule="evenodd" clip-rule="evenodd" d="M158.273 112.172C158.717 112.656 159.283 112.898 159.969 112.898C160.776 112.898 161.402 112.717 161.846 112.354C162.33 111.99 162.572 111.405 162.572 110.598C162.572 110.197 162.448 109.631 162.2 108.9C162.173 108.819 162.144 108.737 162.113 108.652C162.101 108.619 162.089 108.586 162.077 108.552C162.061 108.508 162.044 108.463 162.027 108.418C161.779 107.673 161.459 106.879 161.067 106.039C161.053 106.01 161.04 105.981 161.026 105.952C161.013 105.924 161 105.896 160.987 105.868C160.893 105.671 160.796 105.472 160.695 105.27C160.303 104.457 159.892 103.674 159.461 102.92C159.434 102.873 159.406 102.826 159.379 102.779C159.328 102.689 159.276 102.601 159.224 102.513C159.11 102.32 158.995 102.129 158.879 101.939C158.579 101.452 158.279 101.008 157.979 100.607C157.968 100.592 157.956 100.578 157.945 100.563C157.886 100.484 157.827 100.407 157.767 100.332C157.492 99.9837 157.217 99.6718 156.941 99.3965C156.296 98.7103 155.71 98.3672 155.186 98.3672C154.419 98.3672 153.813 98.5488 153.369 98.9121C152.981 99.1947 152.762 99.6627 152.714 100.316C152.707 100.409 152.703 100.507 152.703 100.607C152.703 100.971 152.885 101.596 153.248 102.484C153.29 102.573 153.333 102.662 153.376 102.752C153.398 102.799 153.421 102.846 153.444 102.894C153.578 103.172 153.718 103.46 153.863 103.759C153.888 103.809 153.913 103.86 153.938 103.912C154.068 104.177 154.203 104.45 154.342 104.731C154.439 104.927 154.539 105.127 154.641 105.33C154.643 105.334 154.645 105.338 154.647 105.342C155.04 106.073 155.414 106.784 155.768 107.475C155.792 107.521 155.816 107.568 155.839 107.614C155.851 107.636 155.862 107.658 155.873 107.681C155.888 107.709 155.902 107.737 155.916 107.765C156.018 107.964 156.117 108.162 156.215 108.357C156.216 108.36 156.217 108.362 156.219 108.365C156.563 109.026 156.847 109.594 157.068 110.071C157.096 110.131 157.123 110.19 157.15 110.247C157.206 110.371 157.258 110.488 157.305 110.598C157.372 110.755 157.446 110.909 157.526 111.06C157.733 111.452 157.982 111.822 158.273 112.172ZM150.544 112.651C150.571 112.464 150.584 112.264 150.584 112.051C150.584 111.862 150.547 111.629 150.474 111.352C150.465 111.317 150.455 111.28 150.444 111.243C150.412 111.132 150.375 111.014 150.332 110.89C150.287 110.758 150.235 110.618 150.177 110.471C150.118 110.319 150.051 110.16 149.979 109.992C149.953 109.925 149.927 109.857 149.901 109.789C149.708 109.297 149.48 108.784 149.217 108.251C149.189 108.195 149.161 108.14 149.133 108.084C149.084 107.986 149.033 107.887 148.981 107.787C148.918 107.666 148.852 107.543 148.785 107.419C148.741 107.338 148.697 107.257 148.651 107.175C148.591 107.065 148.528 106.955 148.465 106.844C148.167 106.289 147.856 105.743 147.529 105.208C147.466 105.105 147.403 105.003 147.34 104.901C147.257 104.769 147.173 104.637 147.089 104.505C147.044 104.436 147 104.367 146.955 104.299C146.881 104.186 146.807 104.075 146.732 103.963C146.645 103.833 146.556 103.703 146.467 103.574C146.314 103.34 146.161 103.116 146.008 102.902C145.858 102.693 145.708 102.493 145.558 102.303C145.482 102.206 145.407 102.112 145.331 102.021C145.268 101.946 145.205 101.872 145.143 101.8C144.898 101.518 144.653 101.262 144.408 101.031C143.722 100.345 143.137 100.002 142.652 100.002C141.885 100.002 141.26 100.184 140.775 100.547C140.331 100.91 140.109 101.495 140.109 102.303C140.109 102.626 140.311 103.231 140.715 104.119C140.783 104.249 140.852 104.381 140.923 104.517C140.947 104.563 140.971 104.61 140.996 104.657C141.295 105.228 141.618 105.848 141.965 106.518C141.987 106.56 142.009 106.602 142.031 106.645C142.089 106.757 142.148 106.871 142.208 106.986C142.215 106.999 142.222 107.012 142.229 107.025C142.71 107.86 143.166 108.669 143.596 109.452C143.62 109.496 143.645 109.54 143.669 109.584C143.755 109.742 143.84 109.898 143.924 110.053C143.972 110.132 144.019 110.21 144.065 110.286C144.453 110.929 144.757 111.456 144.977 111.868C145.011 111.932 145.043 111.993 145.073 112.051C145.084 112.071 145.094 112.092 145.104 112.111C145.115 112.132 145.125 112.152 145.135 112.172C145.417 112.737 145.76 113.302 146.164 113.867C146.608 114.392 147.193 114.654 147.92 114.654C149.478 114.654 150.352 113.987 150.544 112.651ZM139.435 105.959C139.435 105.958 139.44 105.963 139.449 105.972C139.44 105.964 139.435 105.959 139.435 105.959ZM147.717 94.685C146.514 93.8398 144.799 93.002 142.652 93.002C140.779 93.002 138.562 93.4571 136.575 94.9469L136.457 95.0356L136.343 95.1292C133.689 97.3004 133.109 100.291 133.109 102.303C133.109 103.637 133.466 104.751 133.62 105.213C133.827 105.835 134.086 106.452 134.342 107.016L134.423 107.194L134.514 107.367C134.952 108.204 135.452 109.164 136.014 110.248L136.087 110.387L136.165 110.523C136.742 111.524 137.277 112.478 137.769 113.387L137.853 113.542L137.944 113.692C138.488 114.585 138.767 115.088 138.874 115.302C139.335 116.225 139.872 117.102 140.468 117.936L140.635 118.17L140.82 118.389C142.679 120.585 145.268 121.654 147.92 121.654C149.847 121.654 152.586 121.184 154.811 119.01C154.947 118.877 155.076 118.742 155.2 118.605C155.818 118.973 156.472 119.263 157.148 119.473C156.206 120.268 155.181 120.963 154.064 121.56L154.033 121.576L154.003 121.593C152.695 122.309 151.096 123.028 149.171 123.731C148.069 124.108 146.997 124.622 146 125.171L145.932 125.208L145.866 125.247C143.193 126.794 141.223 129.594 141.223 133.182C141.223 135.053 141.65 137.761 143.741 140.001C145.917 142.333 148.71 142.906 150.766 142.906C152.664 142.906 154.486 142.536 156.195 141.92C157.627 141.451 159.019 140.866 160.371 140.172C161.543 139.605 162.635 139.028 163.626 138.436C168.566 135.603 172.712 132.048 175.893 127.713C178.991 123.544 181.338 118.772 182.995 113.483C183.266 112.624 183.565 111.594 183.892 110.413C184.296 109.057 184.638 107.695 184.915 106.326C185.248 104.873 185.496 103.328 185.496 101.818C185.496 99.811 184.99 97.0197 182.75 94.7797C180.51 92.5398 177.718 92.0332 175.711 92.0332C172.962 92.0332 170.261 93.1753 168.39 95.5561L168.291 95.682L168.198 95.8122C167.236 97.1591 166.604 98.6246 166.217 100.097C166.182 100.229 166.148 100.36 166.115 100.489C165.709 99.7313 165.284 98.9917 164.841 98.2708C164.019 96.9357 163.072 95.643 161.965 94.5207C160.928 93.436 158.621 91.3672 155.186 91.3672C153.393 91.3672 151.111 91.7874 149.087 93.3735C148.553 93.7812 148.1 94.2233 147.717 94.685ZM172.441 104.219C172.275 105.135 172.094 106.028 171.897 106.899C171.888 106.938 171.879 106.978 171.87 107.018C171.656 107.959 171.423 108.873 171.172 109.76C171.171 109.765 171.17 109.769 171.168 109.773C170.942 110.575 170.7 111.354 170.443 112.111C169.596 114.614 168.264 117.117 166.447 119.619C166.273 119.86 166.099 120.095 165.923 120.326C165.914 120.336 165.906 120.347 165.898 120.358C164.694 121.934 163.444 123.282 162.148 124.402C160.708 125.683 159.129 126.784 157.412 127.708C157.396 127.716 157.381 127.724 157.365 127.732C157.347 127.742 157.329 127.752 157.311 127.762C156.549 128.178 155.734 128.581 154.867 128.972C154.818 128.994 154.768 129.016 154.719 129.038C154.206 129.267 153.674 129.492 153.124 129.713C152.831 129.83 152.533 129.947 152.23 130.062C152.155 130.09 152.08 130.118 152.005 130.147C151.836 130.21 151.665 130.273 151.492 130.336C151.264 130.412 151.022 130.505 150.766 130.615C150.341 130.798 149.876 131.028 149.373 131.305C148.606 131.749 148.223 132.374 148.223 133.182C148.223 134.998 149.07 135.906 150.766 135.906C151.126 135.906 151.491 135.881 151.861 135.829C151.902 135.824 151.942 135.818 151.982 135.811C152.39 135.749 152.804 135.655 153.224 135.531C153.271 135.517 153.318 135.503 153.366 135.488C153.547 135.431 153.73 135.369 153.914 135.301C154.237 135.197 154.558 135.085 154.877 134.965C155.677 134.664 156.465 134.312 157.244 133.908C158.256 133.421 159.146 132.951 159.915 132.499C159.93 132.49 159.945 132.481 159.96 132.472C160.004 132.446 160.047 132.42 160.09 132.395C162.154 131.215 164.016 129.912 165.678 128.483C165.697 128.468 165.715 128.452 165.734 128.436C167.461 126.944 168.971 125.317 170.262 123.555C170.449 123.303 170.634 123.048 170.815 122.79C170.817 122.787 170.819 122.785 170.82 122.783C172.691 120.122 174.245 117.134 175.483 113.818C175.779 113.026 176.057 112.215 176.316 111.385C176.559 110.618 176.841 109.649 177.164 108.479C177.469 107.463 177.731 106.447 177.95 105.431C177.977 105.308 178.003 105.184 178.029 105.061C178.043 104.993 178.057 104.924 178.07 104.855C178.071 104.852 178.072 104.849 178.072 104.846C178.194 104.322 178.29 103.837 178.359 103.389C178.364 103.358 178.369 103.327 178.373 103.297C178.383 103.23 178.393 103.165 178.401 103.1C178.464 102.628 178.496 102.2 178.496 101.818C178.496 99.9616 177.568 99.0332 175.711 99.0332C174.944 99.0332 174.339 99.3158 173.895 99.8809C173.502 100.431 173.204 101.077 173.003 101.818C172.997 101.838 172.992 101.859 172.986 101.879C172.821 102.508 172.682 103.069 172.571 103.562C172.558 103.622 172.545 103.68 172.532 103.738C172.522 103.785 172.512 103.831 172.502 103.877C172.482 103.991 172.462 104.105 172.441 104.219Z" fill="white"/>
<path fill-rule="evenodd" clip-rule="evenodd" d="M109.245 99.3881C110.976 101.855 112.726 104.284 114.495 106.678C117.884 111.26 121.565 115.674 125.541 119.921L125.558 119.939L125.575 119.957C126.245 120.683 126.9 121.492 127.538 122.351C128.923 124.084 129.914 126.323 129.914 128.943C129.914 130.992 129.425 133.55 127.596 135.75C125.304 138.57 122.087 139.152 119.947 139.152C117.794 139.152 116.121 138.29 115.266 137.785C114.277 137.201 113.38 136.48 112.61 135.79L112.516 135.705L112.424 135.617C111.086 134.327 109.602 132.721 107.989 130.855L107.934 130.79L107.88 130.725C106.305 128.809 104.662 126.702 102.952 124.408C101.273 122.156 99.5946 119.863 97.917 117.531L97.8765 117.475L97.8371 117.417C96.2247 115.079 94.6932 112.863 93.2427 110.768L93.225 110.742L93.2075 110.716C92.0914 109.073 91.0906 107.591 90.2058 106.271C89.4473 107.36 88.6546 108.491 87.8278 109.664L87.8059 109.696L87.7837 109.726C86.4836 111.53 85.1776 113.258 83.8654 114.91C82.5241 116.651 81.1735 118.21 79.8127 119.518C78.5877 120.696 75.9514 122.986 72.2969 122.986C70.0099 122.986 66.9845 122.311 64.7418 119.694C62.836 117.471 62.3301 114.86 62.3301 112.777C62.3301 109.994 63.4655 107.693 64.8779 105.987C65.5692 105.124 66.2305 104.342 66.8505 103.67L66.8701 103.649L66.8898 103.628C69.186 101.181 71.3274 98.6447 73.3157 96.0187C75.3623 93.3156 77.3323 90.5548 79.2256 87.7361C79.7472 86.9311 80.3371 86.1361 80.9715 85.3554L80.9861 85.3374L81.0008 85.3196C81.8846 84.2464 82.8871 83.2639 84.0207 82.4137L84.1015 82.3531L84.1839 82.2949C85.8608 81.1112 87.9509 80.2871 90.3398 80.2871C92.8987 80.2871 95.0302 81.2698 96.6332 82.469C97.8067 83.2911 98.9967 84.3402 99.962 85.6875C100.748 86.7798 101.512 87.8929 102.253 89.0267L104.295 92.1489C104.36 92.2468 104.425 92.3446 104.491 92.4424C104.157 91.2614 103.986 90.0217 103.986 88.7402C103.986 85.0968 105.393 81.7847 108.078 79.2715C108.079 79.2707 108.08 79.2698 108.081 79.269C110.606 76.9044 113.787 75.5645 117.344 75.5645C120.973 75.5645 124.209 76.9858 126.693 79.5323C129.176 82.0352 130.52 85.2472 130.52 88.8008C130.52 92.4205 129.134 95.6914 126.552 98.2109C124.014 100.728 120.768 102.037 117.223 102.037C114.28 102.037 111.542 101.135 109.245 99.3881ZM121.703 84.4414C120.492 83.1901 119.039 82.5645 117.344 82.5645C117.303 82.5645 117.263 82.5648 117.223 82.5655C115.577 82.5937 114.124 83.1988 112.863 84.3809C111.612 85.5514 110.986 87.0046 110.986 88.7402C110.986 88.7604 110.986 88.7806 110.987 88.8008C111.001 90.5107 111.606 91.984 112.803 93.2207C114.014 94.4316 115.487 95.0371 117.223 95.0371C118.958 95.0371 120.432 94.4316 121.643 93.2207C122.894 92.0098 123.52 90.5365 123.52 88.8008C123.52 88.7806 123.519 88.7604 123.519 88.7402C123.505 87.0708 122.9 85.6379 121.703 84.4414ZM114.816 91.2075C114.827 91.2185 114.838 91.2294 114.849 91.2402C115.384 91.7532 116.175 92.0098 117.223 92.0098C118.292 92.0098 119.1 91.7473 119.644 91.2224C119.655 91.2117 119.666 91.2008 119.677 91.1899C120.21 90.6551 120.482 89.8588 120.492 88.8008C120.492 88.7807 120.492 88.7605 120.492 88.7402C120.492 87.7205 120.235 86.9484 119.72 86.4241C119.71 86.4132 119.699 86.4023 119.688 86.3916C119.163 85.8782 118.382 85.6119 117.344 85.5929C117.304 85.5922 117.263 85.5918 117.223 85.5918C116.131 85.5918 115.317 85.8706 114.783 86.4281C114.782 86.4288 114.781 86.4296 114.78 86.4303C114.279 86.9545 114.024 87.7245 114.014 88.7402C114.014 88.7603 114.014 88.7805 114.014 88.8008C114.014 89.8704 114.281 90.6727 114.816 91.2075ZM116.773 89.3787C116.815 89.4044 116.869 89.434 116.937 89.4631C117.05 89.5118 117.15 89.5375 117.223 89.5508C117.284 89.5619 117.327 89.5644 117.343 89.5645C117.343 89.5645 117.343 89.5645 117.343 89.5645C117.347 89.5643 117.374 89.5631 117.416 89.5551C117.467 89.5454 117.525 89.5289 117.582 89.5057C117.602 89.4976 117.62 89.4895 117.635 89.482C117.638 89.4808 117.64 89.4797 117.642 89.4785C117.655 89.4719 117.667 89.4658 117.676 89.4606C117.698 89.4351 117.729 89.3957 117.764 89.3424C117.78 89.3187 117.796 89.2922 117.813 89.263C117.837 89.2202 117.861 89.1715 117.885 89.1168C117.945 88.9777 117.969 88.8655 117.979 88.8008C117.984 88.7737 117.985 88.7549 117.986 88.7459C117.986 88.7443 117.986 88.7424 117.985 88.7402C117.984 88.7324 117.983 88.7211 117.98 88.7066C117.971 88.6605 117.955 88.5995 117.928 88.5322C117.9 88.4648 117.87 88.4108 117.846 88.3737C117.84 88.3656 117.836 88.359 117.832 88.3539L116.773 89.3787ZM103.632 103.575C102.369 101.777 101.117 99.9603 99.8761 98.1249C99.4002 97.4213 98.9259 96.715 98.4531 96.0059L96.3945 92.8574C96.3901 92.8507 96.3857 92.8439 96.3812 92.8371C95.6992 91.7947 94.9973 90.7721 94.2754 89.7695C94.0298 89.4258 93.7171 89.0894 93.3371 88.7606C93.0924 88.5489 92.8199 88.3403 92.5195 88.1348C91.793 87.5697 91.0664 87.2871 90.3398 87.2871C89.6133 87.2871 88.9069 87.5293 88.2207 88.0137C87.8627 88.2821 87.5172 88.5816 87.184 88.9121C86.9161 89.1778 86.6562 89.4637 86.4043 89.7695C85.8796 90.4154 85.4355 91.0208 85.0723 91.5859C84.7508 92.0649 84.4272 92.5422 84.1014 93.0179C84.0754 93.056 84.0493 93.0941 84.0231 93.1322C83.0531 94.5466 82.0642 95.9469 81.0565 97.3331C81.0376 97.359 81.0187 97.3849 80.9999 97.4108C80.3076 98.3619 79.6065 99.3064 78.8965 100.244C78.3948 100.907 77.8843 101.564 77.3649 102.215C77.3517 102.232 77.3384 102.248 77.3252 102.265C76.1055 103.793 74.8369 105.29 73.5194 106.757C73.4975 106.781 73.4756 106.806 73.4536 106.83C72.9736 107.363 72.4871 107.893 71.9941 108.418C71.815 108.612 71.6249 108.825 71.4237 109.058C71.1807 109.339 70.9216 109.648 70.6464 109.986C70.5333 110.124 70.4174 110.268 70.2988 110.416C69.653 111.183 69.3301 111.97 69.3301 112.777C69.3301 113.786 69.5723 114.574 70.0566 115.139C70.541 115.704 71.2878 115.986 72.2969 115.986C73.0234 115.986 73.9115 115.482 74.9609 114.473C74.985 114.45 75.0091 114.426 75.0332 114.403C75.0705 114.367 75.1079 114.33 75.1454 114.293C75.5265 113.918 75.9181 113.506 76.3202 113.058C76.4132 112.954 76.5067 112.849 76.6009 112.741C76.6123 112.728 76.6237 112.715 76.6351 112.702C77.188 112.068 77.7602 111.366 78.3516 110.598C79.6029 109.023 80.8542 107.368 82.1055 105.633C82.5689 104.975 83.0212 104.331 83.4624 103.701C84.2127 102.63 84.9309 101.599 85.6172 100.607C86.7474 99.0332 87.7161 97.7415 88.5234 96.7324C89.0083 96.1552 89.4139 95.743 89.7403 95.496C89.9845 95.3112 90.1844 95.2188 90.3398 95.2188C90.3926 95.2188 90.445 95.2216 90.497 95.2272C90.6301 95.2416 90.761 95.2744 90.8895 95.3256C90.9158 95.3361 90.942 95.3473 90.9682 95.3594C91.2213 95.476 91.4655 95.665 91.7005 95.9266C91.7725 96.0068 91.8437 96.0937 91.9141 96.1875C92.3984 96.8333 92.7617 97.3581 93.0039 97.7617C93.209 98.0973 93.4787 98.5234 93.813 99.0398C93.8219 99.0536 93.8308 99.0675 93.8399 99.0814C94.2243 99.6747 94.6924 100.385 95.2441 101.213C96.2936 102.787 97.5449 104.644 98.998 106.783C100.451 108.882 101.985 111.102 103.6 113.443C103.802 113.725 104.005 114.006 104.207 114.286C105.66 116.297 107.112 118.276 108.564 120.225C110.219 122.445 111.794 124.463 113.287 126.279C114.177 127.31 114.999 128.225 115.753 129.024C115.763 129.035 115.774 129.046 115.784 129.057C115.831 129.106 115.877 129.155 115.923 129.204C116.306 129.606 116.67 129.978 117.017 130.319C117.107 130.407 117.196 130.494 117.283 130.578C118.454 131.628 119.342 132.152 119.947 132.152C120.997 132.152 121.743 131.87 122.188 131.305C122.672 130.74 122.914 129.952 122.914 128.943C122.914 128.136 122.611 127.369 122.006 126.643C121.868 126.455 121.732 126.275 121.599 126.102C121.552 126.041 121.505 125.981 121.458 125.921C121.265 125.675 121.078 125.445 120.895 125.23C120.737 125.043 120.582 124.868 120.432 124.705C119.672 123.894 118.923 123.077 118.183 122.253C118.149 122.215 118.115 122.177 118.081 122.139C116.464 120.335 114.895 118.501 113.375 116.639C111.822 114.736 110.319 112.803 108.867 110.84C108.699 110.613 108.532 110.385 108.364 110.158C108.341 110.127 108.319 110.096 108.296 110.065C106.735 107.943 105.19 105.793 103.661 103.616C103.651 103.602 103.642 103.589 103.632 103.575ZM116.703 89.3209L117.752 88.271C117.752 88.2703 117.751 88.2693 117.749 88.2679C117.74 88.2603 117.719 88.242 117.683 88.218C117.629 88.1814 117.559 88.1422 117.477 88.1084C117.426 88.0878 117.382 88.0731 117.344 88.0626C117.282 88.0455 117.239 88.0399 117.223 88.038C117.196 88.041 117.101 88.0539 116.969 88.1084C116.898 88.1374 116.836 88.1704 116.786 88.2023C116.778 88.2076 116.77 88.2128 116.762 88.218C116.754 88.2232 116.747 88.2282 116.741 88.2328C116.731 88.2466 116.719 88.2636 116.706 88.2838C116.685 88.3162 116.661 88.357 116.637 88.4061C116.636 88.408 116.635 88.4099 116.634 88.4118C116.625 88.4305 116.616 88.4504 116.607 88.4714C116.558 88.5874 116.536 88.6825 116.527 88.7402C116.521 88.7741 116.52 88.7952 116.52 88.8C116.52 88.8005 116.52 88.7999 116.52 88.8C116.52 88.8055 116.521 88.8403 116.532 88.8966C116.545 88.9641 116.568 89.0455 116.604 89.1318C116.632 89.1997 116.662 89.2544 116.687 89.2959C116.692 89.3048 116.698 89.3132 116.703 89.3209Z" fill="white"/>
<path d="M110.262 71.4242C108.61 71.8076 107.579 71.1147 107.168 69.3454L104.498 57.8447C103.815 58.832 102.87 60.0253 101.662 61.4247C100.493 62.815 99.171 64.2614 97.6966 65.7641C96.2131 67.2274 94.6766 68.6409 93.0871 70.0045C91.4976 71.3682 89.9607 72.5124 88.4765 73.4372C87.0014 74.4013 85.674 75.0203 84.4945 75.2942C82.9217 75.6594 81.9391 74.9967 81.5465 73.306C81.373 72.5589 81.5008 71.9491 81.9297 71.4766C82.3496 70.9647 82.8512 70.5374 83.4346 70.1947C86.8658 68.1963 90.1046 65.9938 93.1509 63.5874C96.1882 61.1417 98.9421 58.3682 101.413 55.2667L82.4808 59.6629C81.6945 59.8455 80.9895 59.8434 80.366 59.6567C79.7334 59.4307 79.3166 58.8852 79.1158 58.0201C78.9058 57.1158 79.0395 56.4425 79.5169 56.0001C79.9852 55.5184 80.6125 55.1863 81.3989 55.0037L102.69 50.0597L101.731 45.9312C100.748 46.1595 99.7501 46.412 98.737 46.6887C97.7239 46.9654 96.7619 47.1059 95.8513 47.1101C94.9406 47.1144 94.137 46.8659 93.4405 46.3646C92.7741 45.8149 92.2812 44.852 91.9616 43.4758L88.4009 28.1416C87.6978 25.1141 88.8404 23.2534 91.8286 22.5595L95.0134 21.82C94.946 21.1726 94.8603 20.4466 94.7563 19.642C94.6825 18.7889 94.7541 18.0264 94.971 17.3545C95.1788 16.6432 95.7152 16.1871 96.5802 15.9863C97.2486 15.8311 97.8507 15.8363 98.3864 16.002C98.9523 16.1192 99.3266 16.571 99.5092 17.3573C99.6188 17.8292 99.6483 18.4024 99.5978 19.0772C99.5473 19.7519 99.4936 20.3238 99.4367 20.7928L104.804 19.5466C106.416 19.1722 107.712 19.2234 108.693 19.7001C109.704 20.1283 110.411 21.2074 110.812 22.9374L114.373 38.2716C115.067 41.2598 113.979 43.0872 111.109 43.7537L106.744 44.7671L107.703 48.8956L129.171 43.9105C129.957 43.7279 130.662 43.73 131.286 43.9167C131.909 44.1034 132.326 44.6489 132.536 45.5532C132.737 46.4183 132.603 47.0916 132.135 47.5733C131.666 48.055 131.039 48.3871 130.253 48.5697L110.79 53.0892C112.837 54.23 115.19 55.1753 117.851 55.9249C120.502 56.6353 123.196 57.1702 125.931 57.5295C128.657 57.8495 131.181 58.0094 133.501 58.0092C134.246 58.0022 134.958 58.1268 135.639 58.383C136.351 58.5908 136.807 59.1272 137.008 59.9922C137.428 61.8008 136.792 62.9014 135.102 63.294C134.315 63.4766 133.199 63.4872 131.752 63.3259C130.315 63.2038 128.86 63.0031 127.386 62.7237C125.96 62.4745 124.838 62.2794 124.018 62.1384C121.5 61.6456 119.004 60.9819 116.531 60.1473C114.059 59.3126 111.727 58.1964 109.538 56.7986L112.181 68.1813C112.592 69.9506 111.952 71.0316 110.262 71.4242ZM116.185 25.7301C114.573 26.1045 113.575 25.466 113.192 23.8146C113.128 23.5394 113.259 23.0324 113.584 22.2938C113.91 21.5551 114.36 20.7255 114.933 19.805C115.507 18.8845 116.105 17.979 116.727 17.0887C117.379 16.1499 117.989 15.3867 118.557 14.799C119.116 14.1719 119.572 13.8173 119.926 13.7351C121.695 13.3243 122.781 13.9839 123.183 15.7139C123.301 16.225 123.092 17.0195 122.555 18.0973C122.009 19.1358 121.31 20.2304 120.458 21.3813C119.646 22.523 118.841 23.5179 118.044 24.3661C117.237 25.175 116.617 25.6297 116.185 25.7301ZM83.8998 32.0461C83.5066 32.1374 82.8136 32.0083 81.8208 31.6587C80.8673 31.2999 79.8653 30.911 78.8149 30.4919C77.7947 30.0244 77.0167 29.7078 76.481 29.5421C75.9452 29.3764 75.3958 29.1518 74.8327 28.8682C74.2997 28.5361 73.9602 28.0555 73.8142 27.4264C73.4489 25.8537 74.0724 24.8802 75.6844 24.5058C76.1563 24.3963 76.9188 24.4678 77.972 24.7205C79.016 24.9339 80.1117 25.2803 81.259 25.7598C82.4365 26.1908 83.4659 26.6977 84.3471 27.2804C85.2192 27.8238 85.7145 28.3511 85.8332 28.8622C86.235 30.5922 85.5905 31.6535 83.8998 32.0461ZM94.1979 32.7627L107.645 29.6401L106.604 25.1578C106.33 23.9783 105.623 23.5209 104.483 23.7857L94.4566 26.1139C93.3163 26.3786 92.8832 27.1008 93.1571 28.2804L94.1979 32.7627ZM127.507 38.889C127.232 38.9529 126.651 38.8599 125.764 38.61C124.908 38.3117 123.954 37.9529 122.904 37.5338C121.854 37.1147 120.895 36.7364 120.03 36.3987C119.194 36.0126 118.64 35.7683 118.368 35.6658C117.862 35.4517 117.216 35.1666 116.429 34.8107C115.681 34.4457 115.234 33.9486 115.088 33.3195C114.714 31.7074 115.352 30.7097 117.003 30.3262C117.397 30.2349 118.056 30.3096 118.982 30.5504C119.899 30.7519 120.922 31.053 122.051 31.4538C123.22 31.8456 124.363 32.3054 125.48 32.8333C126.588 33.3219 127.51 33.8123 128.245 34.3044C129.021 34.7874 129.454 35.2255 129.545 35.6187C129.956 37.388 129.277 38.4781 127.507 38.889ZM79.5587 50.0233C77.8286 50.425 76.7582 49.7412 76.3474 47.9719C76.2013 47.3428 76.4136 46.6512 76.9844 45.897C77.5945 45.1338 78.3362 44.4021 79.2096 43.702C80.1132 42.9535 80.9761 42.2973 81.7983 41.7335C82.6204 41.1696 83.1902 40.768 83.5075 40.5285C83.716 40.3558 84.0334 40.1163 84.4595 39.8102C84.8766 39.4647 85.2785 39.1435 85.6654 38.8464C86.0915 38.5403 86.4226 38.3598 86.6585 38.305C88.1133 37.9672 89.0187 38.565 89.3748 40.0984C89.53 40.7668 89.4521 41.3236 89.1411 41.7688C88.9508 42.0202 88.5369 42.4685 87.8995 43.1138C87.2922 43.7106 86.5609 44.3984 85.7058 45.1771C84.89 45.9467 84.0499 46.7012 83.1857 47.4406C82.3516 48.1316 81.5975 48.721 80.9235 49.2091C80.2888 49.6879 79.8339 49.9593 79.5587 50.0233ZM98.2912 42.6276L108.317 40.2994C109.458 40.0346 109.891 39.3125 109.617 38.1329L108.494 33.2968L95.047 36.4193L96.17 41.2554C96.4439 42.435 97.151 42.8924 98.2912 42.6276Z" fill="#FFB992"/>
<path d="M49.8684 85.4481C48.217 85.8316 47.1859 85.1387 46.7751 83.3693L44.1045 71.8687C43.4221 72.8559 42.4768 74.0492 41.2685 75.4487C40.0995 76.8389 38.7779 78.2854 37.3035 79.7881C35.82 81.2514 34.2835 82.6649 32.694 84.0285C31.1045 85.3921 29.5676 86.5363 28.0834 87.4611C26.6082 88.4252 25.2809 89.0442 24.1014 89.3182C22.5286 89.6834 21.546 89.0206 21.1534 87.3299C20.9799 86.5829 21.1076 85.9731 21.5366 85.5005C21.9564 84.9886 22.4581 84.5614 23.0415 84.2187C26.4727 82.2202 29.7114 80.0178 32.7578 77.6114C35.7951 75.1657 38.549 72.3921 41.0195 69.2907L22.0877 73.6869C21.3013 73.8695 20.5964 73.8674 19.9729 73.6807C19.3403 73.4546 18.9235 72.9091 18.7227 72.0441C18.5127 71.1398 18.6464 70.4664 19.1238 70.0241C19.5921 69.5424 20.2194 69.2102 21.0058 69.0276L42.2967 64.0836L41.338 59.9552C40.3551 60.1835 39.357 60.4359 38.3439 60.7126C37.3307 60.9893 36.3688 61.1298 35.4582 61.1341C34.5475 61.1384 33.7439 60.8899 33.0474 60.3886C32.381 59.8389 31.8881 58.8759 31.5685 57.4998L28.0077 42.1656C27.3047 39.1381 28.4473 37.2774 31.4355 36.5835L34.6203 35.8439C34.5529 35.1966 34.4671 34.4706 34.3632 33.666C34.2894 32.8129 34.361 32.0504 34.5779 31.3784C34.7857 30.6672 35.3221 30.2111 36.1871 30.0102C36.8555 29.855 37.4576 29.8602 37.9933 30.0259C38.5592 30.1431 38.9335 30.5949 39.1161 31.3813C39.2256 31.8531 39.2552 32.4264 39.2046 33.1011C39.1541 33.7759 39.1005 34.3478 39.0436 34.8168L44.4106 33.5705C46.0226 33.1962 47.3191 33.2474 48.3 33.724C49.3111 34.1523 50.0175 35.2314 50.4192 36.9614L53.98 52.2956C54.6739 55.2838 53.5857 57.1111 50.7155 57.7777L46.3511 58.7911L47.3098 62.9195L68.7777 57.9345C69.5641 57.7519 70.269 57.7539 70.8925 57.9406C71.516 58.1274 71.9327 58.6729 72.1427 59.5772C72.3436 60.4422 72.2099 61.1156 71.7416 61.5973C71.2733 62.0789 70.646 62.4111 69.8596 62.5937L50.397 67.1131C52.4438 68.254 54.7973 69.1992 57.4577 69.9489C60.109 70.6593 62.8024 71.1941 65.5379 71.5534C68.2643 71.8734 70.7877 72.0334 73.1083 72.0332C73.8525 72.0261 74.5652 72.1507 75.2462 72.407C75.9575 72.6147 76.4136 73.1511 76.6144 74.0161C77.0344 75.8248 76.3991 76.9254 74.7084 77.318C73.922 77.5006 72.8056 77.5112 71.3593 77.3498C69.922 77.2277 68.4665 77.027 66.9927 76.7477C65.5674 76.4985 64.4447 76.3034 63.6246 76.1623C61.1067 75.6696 58.6113 75.0059 56.1384 74.1712C53.6654 73.3366 51.3343 72.2203 49.145 70.8225L51.7882 82.2052C52.199 83.9746 51.5591 85.0555 49.8684 85.4481ZM55.7917 39.7541C54.1797 40.1284 53.1819 39.4899 52.7985 37.8386C52.7345 37.5633 52.8655 37.0564 53.1912 36.3177C53.5169 35.5791 53.9666 34.7495 54.5402 33.829C55.1137 32.9084 55.7115 32.003 56.3336 31.1127C56.9858 30.1739 57.5959 29.4106 58.1639 28.8229C58.7227 28.1959 59.1791 27.8413 59.5329 27.7591C61.3023 27.3483 62.3878 28.0078 62.7895 29.7378C62.9082 30.249 62.699 31.0434 62.162 32.1212C61.6158 33.1597 60.9169 34.2544 60.0653 35.4052C59.253 36.5469 58.4481 37.5419 57.6505 38.3901C56.8438 39.199 56.2242 39.6537 55.7917 39.7541ZM23.5067 46.0701C23.1135 46.1614 22.4205 46.0322 21.4276 45.6826C20.4741 45.3239 19.4722 44.935 18.4218 44.5159C17.4016 44.0483 16.6236 43.7317 16.0878 43.5661C15.5521 43.4004 15.0027 43.1758 14.4396 42.8921C13.9066 42.5601 13.5671 42.0795 13.421 41.4504C13.0558 39.8777 13.6793 38.9041 15.2913 38.5298C15.7631 38.4202 16.5256 38.4918 17.5788 38.7445C18.6229 38.9579 19.7186 39.3043 20.8659 39.7838C22.0434 40.2148 23.0728 40.7217 23.954 41.3044C24.826 41.8478 25.3214 42.375 25.4401 42.8862C25.8418 44.6162 25.1974 45.6775 23.5067 46.0701ZM33.8048 46.7866L47.2517 43.6641L46.2109 39.1818C45.9369 38.0022 45.2299 37.5449 44.0896 37.8096L34.0634 40.1378C32.9232 40.4026 32.49 41.1248 32.7639 42.3043L33.8048 46.7866ZM67.1144 52.913C66.8391 52.9769 66.2581 52.8839 65.3713 52.634C64.5147 52.3356 63.5612 51.9769 62.5108 51.5578C61.4604 51.1387 60.5023 50.7603 59.6366 50.4227C58.801 50.0365 58.247 49.7922 57.9746 49.6897C57.469 49.4756 56.8227 49.1906 56.0356 48.8347C55.2878 48.4696 54.8409 47.9726 54.6948 47.3435C54.3205 45.7314 54.959 44.7336 56.6104 44.3502C57.0036 44.2589 57.6632 44.3336 58.5893 44.5744C59.5063 44.7758 60.5293 45.077 61.6584 45.4778C62.8267 45.8695 63.9695 46.3293 65.0866 46.8573C66.1946 47.3459 67.1165 47.8362 67.8524 48.3284C68.6275 48.8114 69.0608 49.2495 69.1521 49.6427C69.5629 51.412 68.8837 52.5021 67.1144 52.913ZM19.1655 64.0472C17.4355 64.449 16.3651 63.7652 15.9542 61.9958C15.8082 61.3667 16.0205 60.6751 16.5913 59.921C17.2014 59.1577 17.9431 58.4261 18.8165 57.726C19.7201 56.9775 20.583 56.3213 21.4051 55.7574C22.2273 55.1936 22.797 54.7919 23.1144 54.5525C23.3229 54.3797 23.6402 54.1403 24.0664 53.8341C24.4835 53.4887 24.8854 53.1674 25.2723 52.8704C25.6984 52.5642 26.0295 52.3838 26.2654 52.329C27.7202 51.9912 28.6256 52.589 28.9817 54.1224C29.1369 54.7908 29.059 55.3476 28.748 55.7928C28.5577 56.0441 28.1438 56.4925 27.5063 57.1378C26.899 57.7346 26.1678 58.4224 25.3127 59.2011C24.4969 59.9707 23.6568 60.7252 22.7926 61.4646C21.9585 62.1555 21.2044 62.745 20.5304 63.233C19.8957 63.7119 19.4408 63.9833 19.1655 64.0472ZM37.8981 56.6516L47.9243 54.3234C49.0646 54.0586 49.4977 53.3364 49.2238 52.1569L48.1008 47.3207L34.6539 50.4432L35.7769 55.2794C36.0508 56.459 36.7579 56.9163 37.8981 56.6516Z" fill="#FFAAA5"/>
<path fill-rule="evenodd" clip-rule="evenodd" d="M111.739 58.0838C110.99 57.6857 110.257 57.2573 109.538 56.7986L112.181 68.1813C112.592 69.9506 111.952 71.0316 110.262 71.4242C108.61 71.8076 107.579 71.1147 107.168 69.3454L104.498 57.8447C104.464 57.8937 104.429 57.9431 104.394 57.9931C104.018 58.5283 103.567 59.1217 103.043 59.7733C102.897 59.9543 102.745 60.1397 102.588 60.3296C102.299 60.6794 101.99 61.0444 101.662 61.4247C101.325 61.8245 100.977 62.229 100.615 62.6382C100.062 63.264 99.4799 63.9006 98.868 64.5481C98.4889 64.9493 98.0984 65.3546 97.6966 65.7641C97.1786 66.275 96.6542 66.7799 96.1233 67.2787C96.1125 67.2889 96.1016 67.299 96.0908 67.3092C95.1115 68.2283 94.1103 69.1267 93.0871 70.0045C91.4976 71.3682 89.9607 72.5124 88.4765 73.4372C88.4537 73.4521 88.4309 73.4669 88.4082 73.4816C87.5962 74.0081 86.8293 74.4293 86.1074 74.7454C86.1015 74.748 86.0956 74.7505 86.0897 74.7531C86.0534 74.7689 86.0173 74.7844 85.9813 74.7997C85.8908 74.8381 85.8009 74.8748 85.7118 74.9098C85.2899 75.0756 84.8841 75.2037 84.4945 75.2942C82.9217 75.6594 81.9391 74.9967 81.5465 73.306C81.373 72.5589 81.5008 71.9491 81.9297 71.4766C82.3232 70.9969 82.7884 70.5915 83.3256 70.2604C83.3616 70.2382 83.398 70.2163 83.4346 70.1947C84.1421 69.7827 84.8413 69.362 85.5323 68.9326C85.5654 68.9121 85.5984 68.8916 85.6314 68.871C85.6552 68.8562 85.6789 68.8413 85.7027 68.8265C87.088 67.9612 88.4403 67.061 89.7596 66.1258C90.4138 65.6621 91.0598 65.1898 91.6977 64.7089C92.1869 64.3401 92.6713 63.9663 93.1509 63.5874C93.5765 63.2448 93.9965 62.8957 94.4109 62.5402C94.4299 62.5238 94.449 62.5074 94.4681 62.491C95.5823 61.5323 96.6563 60.5269 97.6899 59.4749C97.7108 59.4536 97.7317 59.4323 97.7526 59.411C97.9802 59.1786 98.2058 58.944 98.4294 58.7071C98.4421 58.6936 98.4547 58.6802 98.4674 58.6668C98.6424 58.481 98.8161 58.2939 98.9887 58.1054C99.7045 57.3234 100.4 56.5174 101.074 55.6876C101.11 55.6429 101.147 55.5982 101.183 55.5534C101.26 55.4582 101.336 55.3626 101.413 55.2667L82.4808 59.6629C81.6945 59.8455 80.9895 59.8435 80.366 59.6567C79.7334 59.4307 79.3166 58.8852 79.1158 58.0202C79.0395 57.6918 79.0086 57.3939 79.023 57.1264C79.0482 56.6573 79.2129 56.2819 79.5169 56.0001C79.8506 55.6569 80.2651 55.3895 80.7603 55.1982C80.96 55.121 81.1729 55.0562 81.3989 55.0037L102.69 50.0597L101.731 45.9312C101.137 46.0693 100.536 46.2163 99.9307 46.3721C99.6896 46.4341 99.4477 46.4975 99.2049 46.5623C99.0493 46.6039 98.8933 46.646 98.737 46.6887C98.1214 46.8568 97.5247 46.9747 96.9469 47.0422C96.5738 47.0858 96.2086 47.1085 95.8513 47.1101C95.2142 47.1131 94.6295 46.9924 94.0972 46.748C93.8686 46.643 93.6497 46.5152 93.4405 46.3646C93.1059 46.0886 92.815 45.7083 92.5678 45.2239C92.3889 44.8733 92.2329 44.468 92.0999 44.0082C92.0796 43.9383 92.0599 43.8671 92.0407 43.7946C92.0133 43.6909 91.9869 43.5847 91.9616 43.4758L88.4009 28.1417C87.835 25.705 88.4647 24.0241 90.29 23.0991C90.7326 22.8748 91.2455 22.695 91.8286 22.5595L95.0134 21.82C94.9629 21.3356 94.9023 20.8072 94.8313 20.2347C94.8075 20.0421 94.7825 19.8446 94.7563 19.642C94.7331 19.3738 94.7243 19.1145 94.7298 18.8642C94.7309 18.8135 94.7326 18.7631 94.7349 18.7132C94.7388 18.6284 94.7445 18.5447 94.7518 18.4621C94.7865 18.069 94.8595 17.6998 94.971 17.3545C95.1788 16.6432 95.7152 16.1871 96.5802 15.9863C97.221 15.8375 97.8008 15.8361 98.3197 15.9822C98.342 15.9885 98.3643 15.9951 98.3864 16.002C98.9523 16.1192 99.3266 16.571 99.5092 17.3573C99.5372 17.4778 99.5599 17.6048 99.5774 17.7385C99.6159 18.0312 99.6292 18.3557 99.6176 18.7119C99.6161 18.7583 99.6142 18.8052 99.6118 18.8526C99.6091 18.9063 99.6059 18.9608 99.6022 19.0159C99.6008 19.0362 99.5993 19.0567 99.5978 19.0772C99.5941 19.1268 99.5903 19.1758 99.5866 19.2243C99.5394 19.8354 99.4894 20.3583 99.4367 20.7928L104.804 19.5466C104.895 19.5254 104.985 19.5056 105.074 19.4871C105.62 19.3742 106.128 19.3123 106.598 19.3013C106.822 19.2961 107.038 19.3025 107.246 19.3206C107.787 19.3677 108.27 19.4942 108.693 19.7001C109.14 19.8893 109.527 20.2057 109.855 20.6493C110.269 21.2093 110.588 21.972 110.812 22.9374L114.373 38.2716C114.415 38.453 114.451 38.6301 114.48 38.803C114.493 38.8832 114.505 38.9624 114.516 39.0408C114.567 39.4203 114.586 39.7782 114.571 40.1145C114.548 40.6319 114.446 41.0982 114.267 41.5133C113.782 42.6304 112.73 43.3772 111.109 43.7537L106.744 44.7671L107.703 48.8956L129.171 43.9105C129.957 43.7279 130.662 43.73 131.286 43.9167C131.62 44.0169 131.895 44.2204 132.111 44.5273C132.297 44.7922 132.439 45.1342 132.536 45.5533C132.737 46.4183 132.603 47.0916 132.135 47.5733C131.666 48.055 131.039 48.3871 130.253 48.5697L110.79 53.0892C111.062 53.2408 111.34 53.389 111.623 53.5337C111.651 53.5483 111.679 53.5628 111.708 53.5772C112.437 53.9472 113.203 54.2944 114.004 54.6187C114.615 54.8662 115.247 55.1005 115.899 55.3214C116.072 55.3798 116.246 55.4373 116.421 55.4938C116.888 55.6441 117.364 55.7878 117.851 55.925C117.883 55.9336 117.916 55.9423 117.948 55.9509C119.911 56.4734 121.896 56.8997 123.905 57.23C124.215 57.281 124.526 57.3297 124.837 57.3761C124.873 57.3815 124.91 57.3869 124.946 57.3923C125.274 57.4406 125.602 57.4863 125.931 57.5295C126.722 57.6223 127.496 57.7017 128.252 57.7675C128.276 57.7696 128.3 57.7717 128.324 57.7738C129.339 57.8611 130.323 57.9242 131.276 57.9629C131.589 57.9756 131.899 57.9857 132.205 57.9932C132.253 57.9944 132.3 57.9955 132.347 57.9965C132.737 58.005 133.122 58.0093 133.501 58.0093C133.627 58.0081 133.752 58.0106 133.876 58.017C134.486 58.0481 135.073 58.1701 135.639 58.383C136.351 58.5908 136.807 59.1272 137.008 59.9922C137.428 61.8008 136.792 62.9014 135.102 63.294C134.83 63.3572 134.518 63.3998 134.167 63.4218C134.03 63.4304 133.887 63.4359 133.738 63.4382C133.677 63.4391 133.615 63.4395 133.553 63.4394C133.536 63.4394 133.519 63.4393 133.502 63.4392C132.985 63.4361 132.402 63.3984 131.752 63.3259C131.504 63.3047 131.255 63.2813 131.005 63.2555C129.811 63.132 128.605 62.9548 127.386 62.7237C126.625 62.5908 125.951 62.4732 125.363 62.371C125.341 62.3672 125.319 62.3634 125.297 62.3596C124.81 62.2751 124.384 62.2013 124.018 62.1384C121.856 61.7153 119.711 61.1662 117.582 60.4911C117.289 60.3982 116.996 60.3029 116.704 60.2052C116.686 60.1992 116.668 60.1931 116.65 60.1871C116.61 60.1738 116.571 60.1606 116.531 60.1473C115.859 59.9202 115.196 59.6723 114.545 59.4036C113.671 59.0432 112.816 58.6453 111.979 58.2099C111.899 58.1682 111.819 58.1262 111.739 58.0838ZM119.262 68.244C119.403 69.912 119.193 71.9251 118.033 73.8849C116.414 76.6198 113.822 77.7836 111.845 78.2427C109.843 78.7076 106.992 78.781 104.345 77.002C102.464 75.7375 101.411 74.0185 100.819 72.4713C99.7836 73.4417 98.7254 74.3904 97.6449 75.3174C95.8579 76.8504 94.0571 78.2023 92.2416 79.3387C90.3809 80.5479 88.3059 81.5954 86.0778 82.1128C84.1089 82.57 81.2865 82.6433 78.6639 80.8745C77.0704 79.7998 76.0818 78.398 75.4662 77.0625C76.4756 76.5884 76.885 75.7118 76.6944 74.4327C76.6744 74.2983 76.6477 74.1594 76.6144 74.0161C76.4136 73.1511 75.9575 72.6147 75.2463 72.407C74.9982 72.3136 74.746 72.2378 74.4896 72.1794C74.5871 70.4118 75.1966 68.5522 76.6131 66.9221C76.877 66.608 77.1545 66.3089 77.4446 66.025C74.2621 64.6438 72.8131 61.8252 72.2972 59.6035C72.0006 58.326 71.849 56.5297 72.3791 54.6932C70.6754 53.0968 69.8878 51.1012 69.5288 49.5552C68.7271 46.1028 70.1767 43.2926 71.4029 41.6725L71.4588 41.5987L71.5166 41.5264C72.4789 40.3225 73.5845 39.2446 74.7854 38.2772C75.3063 37.8466 75.8254 37.4344 76.3427 37.0421C76.3021 37.026 76.2615 37.0098 76.2208 36.9935L76.058 36.9286L75.8986 36.8555C75.4519 36.6508 75.0982 36.4976 74.8276 36.3875C74.6938 36.333 74.5909 36.2934 74.5158 36.2659C74.4449 36.2398 74.4122 36.2295 74.4122 36.2294C73.4623 35.9357 72.5524 35.5574 71.6839 35.12L71.4003 34.9772L71.1308 34.8092C68.9726 33.4645 67.5482 31.3896 66.9956 29.0098C66.5589 27.1291 66.4352 24.3617 68.1129 21.7418C69.7665 19.1596 72.2857 18.1088 74.1011 17.6872C76.2396 17.1906 78.3524 17.6174 79.4949 17.8874C80.9584 18.1954 82.4009 18.6595 83.8144 19.2415C83.8475 19.2538 83.8805 19.2662 83.9136 19.2787C85.1111 17.955 86.5455 17.0614 87.9791 16.4647C88.0587 16.074 88.1591 15.6815 88.2825 15.2888C89.3764 11.6944 92.2745 9.79986 94.9968 9.1677C96.5198 8.81404 98.2996 8.71857 100.149 9.22526C102.363 9.77373 103.857 11.042 104.836 12.4311C106.717 12.1802 108.869 12.2362 110.994 13.0714C111.751 11.9844 112.56 10.9462 113.427 10.0355C113.858 9.55913 114.393 9.02514 115.023 8.53526C115.631 8.06321 116.767 7.28258 118.343 6.91657C120.24 6.4759 123.031 6.31645 125.702 7.93941C128.408 9.58353 129.547 12.1751 130.001 14.1305C130.424 15.9498 130.13 17.5399 129.884 18.4754C129.616 19.4947 129.213 20.4306 128.82 21.2192L128.786 21.2879L128.75 21.3557C128.017 22.7511 127.129 24.1303 126.126 25.4903C126.89 25.7908 127.644 26.116 128.388 26.4656C129.678 27.0383 130.922 27.6834 132.045 28.4248C132.677 28.8251 133.429 29.3652 134.129 30.0732C134.813 30.765 135.909 32.0786 136.364 34.0354C136.669 35.3505 136.831 37.0728 136.381 38.8812C138.161 40.4114 139.006 42.4683 139.354 43.9699C139.852 46.1127 139.815 49.1366 137.795 51.7193C137.826 51.7303 137.858 51.7414 137.889 51.7526C141.364 52.8881 143.205 55.7333 143.826 58.4088C144.255 60.2541 144.449 63.0055 142.908 65.6737C141.307 68.4473 138.703 69.6439 136.685 70.1126C134.774 70.5564 132.759 70.4764 131.07 70.293C129.431 70.1507 127.785 69.9224 126.133 69.6109C124.733 69.3661 123.633 69.175 122.831 69.037L122.752 69.0235L122.673 69.0081C121.531 68.7845 120.394 68.5297 119.262 68.244ZM129.651 36.7929C129.681 36.442 129.645 36.0506 129.545 35.6187C129.454 35.2255 129.021 34.7874 128.245 34.3044C127.997 34.1384 127.728 33.9726 127.437 33.807C127.347 33.7557 127.255 33.7045 127.161 33.6532C126.854 33.4859 126.526 33.3188 126.175 33.1519C125.952 33.0456 125.72 32.9394 125.48 32.8333C125.283 32.7405 125.086 32.6497 124.888 32.5611C124.881 32.5579 124.874 32.5547 124.866 32.5515C124.018 32.1728 123.156 31.8326 122.279 31.5311C122.203 31.5051 122.127 31.4793 122.051 31.4539C122.024 31.4441 121.997 31.4345 121.97 31.4249C121.915 31.4056 121.86 31.3866 121.806 31.3678C121.511 31.2654 121.223 31.17 120.943 31.0816C120.752 31.0215 120.565 30.9646 120.382 30.911C120.313 30.8911 120.246 30.8716 120.178 30.8526C120.055 30.8178 119.933 30.7844 119.813 30.7525C119.527 30.6766 119.25 30.6093 118.982 30.5504C118.834 30.5119 118.693 30.4777 118.559 30.4477C118.51 30.4368 118.462 30.4265 118.416 30.4168C117.929 30.3156 117.539 30.2743 117.244 30.2929C117.155 30.2985 117.075 30.3096 117.003 30.3262C116.142 30.5262 115.556 30.8934 115.246 31.4276C115.185 31.5332 115.134 31.6454 115.094 31.764C114.991 32.0737 114.96 32.4278 115.003 32.8263C115.02 32.9838 115.048 33.1482 115.088 33.3195C115.201 33.8071 115.495 34.2154 115.97 34.5444C116.108 34.6399 116.261 34.7286 116.429 34.8107C116.914 35.0303 117.346 35.2229 117.725 35.3885C117.785 35.415 117.845 35.4409 117.903 35.466C118.017 35.5158 118.126 35.5628 118.23 35.6071C118.277 35.6272 118.323 35.6468 118.368 35.6658C118.64 35.7683 119.194 36.0126 120.03 36.3987C120.033 36.3999 120.036 36.401 120.039 36.4022C120.113 36.4312 120.188 36.4604 120.264 36.49C120.293 36.5014 120.322 36.5129 120.352 36.5244C120.539 36.5978 120.731 36.673 120.926 36.7499C121.027 36.7897 121.13 36.83 121.233 36.8708C121.73 37.067 122.253 37.2744 122.802 37.493C122.836 37.5066 122.87 37.5202 122.904 37.5339C123.004 37.5739 123.104 37.6134 123.202 37.6523C123.246 37.6695 123.289 37.6865 123.332 37.7034C123.538 37.7845 123.74 37.8631 123.939 37.9392C124.468 38.1424 124.969 38.3281 125.442 38.4964C125.495 38.5152 125.547 38.5337 125.599 38.552C125.654 38.5716 125.71 38.5909 125.764 38.61C126.651 38.8599 127.232 38.9529 127.507 38.889C127.672 38.8507 127.828 38.8065 127.974 38.7564C129.012 38.4002 129.571 37.7457 129.651 36.7929ZM113.785 25.1345C114.274 25.7317 114.995 25.9465 115.948 25.7787C116.025 25.7651 116.104 25.7489 116.185 25.7302C116.617 25.6297 117.237 25.1751 118.044 24.3662C118.067 24.3413 118.09 24.3163 118.114 24.2912C118.167 24.2343 118.22 24.1767 118.273 24.1185C118.482 23.8888 118.692 23.649 118.903 23.3991C119.104 23.1603 119.305 22.9123 119.507 22.6551C119.604 22.5325 119.7 22.4077 119.797 22.2808C119.852 22.2084 119.907 22.1352 119.962 22.0615C120.127 21.8408 120.293 21.6141 120.458 21.3813C120.65 21.1222 120.834 20.8659 121.01 20.6125C121.094 20.4921 121.176 20.3724 121.256 20.2533C121.259 20.2493 121.262 20.2453 121.264 20.2413C121.308 20.1772 121.35 20.1132 121.392 20.0495C121.749 19.5093 122.07 18.9824 122.354 18.4689C122.39 18.4047 122.425 18.3408 122.459 18.277C122.492 18.2169 122.524 18.157 122.555 18.0973C123.092 17.0195 123.301 16.225 123.183 15.7139C122.781 13.9839 121.695 13.3243 119.926 13.7352C119.572 13.8173 119.116 14.1719 118.557 14.799C118.323 15.041 118.082 15.3127 117.834 15.6142C117.809 15.6448 117.783 15.6758 117.758 15.707C117.427 16.1152 117.083 16.5757 116.727 17.0887C116.692 17.1381 116.658 17.1875 116.623 17.237C116.558 17.3307 116.494 17.4245 116.429 17.5185C116.379 17.5912 116.329 17.6641 116.28 17.737C116.197 17.8595 116.114 17.9823 116.031 18.1053C116.012 18.1338 115.993 18.1624 115.974 18.1909C115.831 18.4062 115.688 18.6224 115.547 18.8395C115.34 19.1595 115.135 19.4813 114.933 19.805C114.903 19.8539 114.873 19.9026 114.843 19.951C114.681 20.2148 114.529 20.471 114.387 20.7196C114.361 20.7652 114.336 20.8106 114.31 20.8557C114.023 21.3682 113.781 21.8476 113.584 22.2938C113.455 22.5859 113.357 22.8418 113.289 23.0615C113.218 23.2912 113.181 23.4813 113.176 23.6317C113.174 23.7011 113.179 23.7621 113.192 23.8146C113.225 23.9593 113.263 24.0962 113.307 24.2253C113.394 24.4886 113.502 24.7196 113.628 24.9182C113.678 24.9951 113.73 25.0672 113.785 25.1345ZM84.3471 27.2804C84.1188 27.1295 83.8807 26.9836 83.6325 26.8429C83.6004 26.8247 83.5681 26.8065 83.5357 26.7885C83.2271 26.6168 82.9034 26.4529 82.5647 26.2967C82.1519 26.1063 81.7166 25.9273 81.259 25.7598C81.2481 25.7552 81.2372 25.7507 81.2262 25.7461C81.2156 25.7417 81.2049 25.7373 81.1942 25.7328C81.1384 25.7097 81.0828 25.6869 81.0272 25.6645C80.9446 25.631 80.8623 25.5983 80.7802 25.5662C80.6958 25.5333 80.6118 25.5011 80.528 25.4697C79.6441 25.1379 78.7921 24.8881 77.972 24.7205C77.8019 24.6797 77.6394 24.6436 77.4845 24.6123C77.3207 24.5791 77.1653 24.5512 77.0183 24.5286C76.4441 24.4403 75.9995 24.4327 75.6844 24.5058C74.0724 24.8802 73.4489 25.8537 73.8142 27.4264C73.9602 28.0555 74.2997 28.5361 74.8327 28.8682C75.3958 29.1518 75.9452 29.3764 76.481 29.5421C76.5764 29.5716 76.6796 29.6059 76.7904 29.6451C76.8216 29.656 76.8534 29.6674 76.8857 29.6792C76.908 29.6873 76.9306 29.6955 76.9535 29.704C77.4423 29.8846 78.0628 30.1473 78.8149 30.4919C78.8217 30.4947 78.8285 30.4974 78.8353 30.5001C78.9067 30.5286 78.9779 30.5569 79.0488 30.5851C79.1043 30.6072 79.1597 30.6291 79.2149 30.651C79.289 30.6804 79.3629 30.7096 79.4365 30.7387C80.1565 31.0229 80.8528 31.2924 81.5256 31.5472C81.5696 31.5639 81.6135 31.5805 81.6574 31.5971C81.712 31.6177 81.7665 31.6382 81.8208 31.6587C81.8989 31.6862 81.9751 31.7123 82.0495 31.7371C82.6124 31.9245 83.0691 32.0339 83.4196 32.0651C83.6115 32.0822 83.7716 32.0759 83.8998 32.0461C84.3812 31.9343 84.7777 31.7683 85.0895 31.5482C85.1317 31.5183 85.1723 31.4876 85.2114 31.4558C85.8978 30.8975 86.1051 30.033 85.8332 28.8622C85.8242 28.8234 85.8131 28.7846 85.7997 28.7457C85.6373 28.271 85.153 27.7826 84.3471 27.2804ZM79.2096 43.7021C78.8803 43.966 78.5697 44.2345 78.2778 44.5074C78.1245 44.6508 77.9764 44.7954 77.8334 44.9412C77.8088 44.9663 77.7844 44.9914 77.7601 45.0165C77.4815 45.3052 77.2229 45.5987 76.9844 45.897C76.4136 46.6512 76.2013 47.3428 76.3474 47.9719C76.4726 48.5113 76.6592 48.9499 76.9071 49.2875C77.4723 50.0573 78.3561 50.3025 79.5587 50.0233C79.7097 49.9882 79.915 49.8906 80.1744 49.7304C80.3875 49.5989 80.6373 49.4251 80.9235 49.2091C80.959 49.1834 80.9946 49.1575 81.0305 49.1313C81.0687 49.1034 81.1071 49.0752 81.1457 49.0467C81.5948 48.7154 82.0776 48.3413 82.5941 47.9245C82.6167 47.9063 82.6393 47.888 82.662 47.8696C82.8329 47.7312 83.0075 47.5882 83.1857 47.4406C83.206 47.4232 83.2264 47.4058 83.2467 47.3883C83.2648 47.3728 83.2829 47.3573 83.301 47.3417C83.7954 46.9169 84.2819 46.4872 84.7603 46.0524C84.9322 45.8963 85.103 45.7395 85.2728 45.5821C85.4179 45.4476 85.5622 45.3126 85.7058 45.1771C85.7768 45.1125 85.847 45.0484 85.9163 44.985C85.9681 44.9376 86.0194 44.8906 86.0702 44.8439C86.2101 44.7155 86.3463 44.5897 86.4789 44.4666C86.5343 44.4152 86.589 44.3642 86.6431 44.3137C86.8625 44.1091 87.0715 43.912 87.2701 43.7226C87.3519 43.6446 87.4318 43.568 87.51 43.4926C87.6089 43.3974 87.7049 43.3042 87.7982 43.2131C87.8323 43.1797 87.8661 43.1466 87.8995 43.1138C88.0762 42.9349 88.2357 42.7712 88.3781 42.6226C88.4136 42.5855 88.448 42.5493 88.4814 42.5141C88.7734 42.2062 88.9836 41.9705 89.1118 41.8068C89.1221 41.7937 89.1319 41.781 89.1411 41.7688C89.2892 41.5568 89.3844 41.3195 89.4268 41.0568C89.4734 40.768 89.4561 40.4485 89.3748 40.0984C89.1841 39.2772 88.8358 38.7243 88.3299 38.4398C88.0747 38.2962 87.7793 38.221 87.4438 38.2141C87.2028 38.2091 86.941 38.2394 86.6585 38.305C86.433 38.3574 86.1205 38.5246 85.7211 38.8067C85.7027 38.8197 85.6841 38.833 85.6654 38.8464C85.6022 38.8949 85.5387 38.944 85.4747 38.9938C85.4269 39.0311 85.3788 39.0686 85.3305 39.1066C85.0817 39.3022 84.8269 39.5074 84.5662 39.7221C84.548 39.737 84.5299 39.752 84.5117 39.767C84.4943 39.7814 84.4769 39.7958 84.4595 39.8102C84.2897 39.9322 84.1371 40.0436 84.0018 40.1445C83.7977 40.2966 83.6329 40.4246 83.5075 40.5285C83.2874 40.6946 82.946 40.9386 82.4833 41.2606C82.4156 41.3077 82.3453 41.3564 82.2725 41.4069C82.2479 41.4239 82.223 41.4411 82.1979 41.4585C82.072 41.5454 81.9388 41.6371 81.7982 41.7335C81.1389 42.1857 80.4534 42.6972 79.7417 43.2682C79.7392 43.2702 79.7367 43.2722 79.7342 43.2742C79.7119 43.2921 79.6896 43.31 79.6673 43.328C79.5159 43.45 79.3634 43.5747 79.2096 43.7021ZM108.317 40.2994C108.976 40.1466 109.398 39.8412 109.585 39.3834C109.722 39.0483 109.733 38.6315 109.617 38.1329L108.494 33.2968L95.047 36.4193L96.17 41.2555C96.2237 41.4867 96.2941 41.6902 96.3811 41.8659C96.4217 41.948 96.466 42.0241 96.5139 42.094C96.5832 42.1952 96.66 42.2838 96.7445 42.3596C96.7461 42.3611 96.7478 42.3626 96.7495 42.3641C96.9884 42.5765 97.2878 42.6883 97.6475 42.6995C97.8441 42.7056 98.0586 42.6816 98.2912 42.6276L108.317 40.2994ZM107.645 29.6401L106.604 25.1578C106.578 25.0465 106.548 24.9417 106.515 24.8432C106.471 24.7153 106.421 24.5982 106.364 24.492C106.314 24.3973 106.258 24.3112 106.197 24.2337C106.144 24.1655 106.086 24.104 106.025 24.0492C105.959 23.9909 105.889 23.9401 105.814 23.8969C105.468 23.697 105.024 23.66 104.483 23.7857L94.4566 26.1139C93.7982 26.2667 93.3756 26.5721 93.1887 27.0299C93.0518 27.365 93.0413 27.7818 93.1571 28.2804L94.1979 32.7627L107.645 29.6401Z" fill="white"/>
<path fill-rule="evenodd" clip-rule="evenodd" d="M51.3463 72.1077C50.5972 71.7097 49.8635 71.2813 49.145 70.8225L51.7882 82.2052C52.199 83.9746 51.5591 85.0555 49.8684 85.4481C48.217 85.8316 47.1859 85.1387 46.7751 83.3693L44.1045 71.8687C44.0707 71.9176 44.0362 71.9671 44.0011 72.017C43.6247 72.5523 43.1742 73.1457 42.6495 73.7973C42.5038 73.9782 42.3523 74.1636 42.1952 74.3536C41.9057 74.7034 41.5968 75.0684 41.2685 75.4487C40.9323 75.8485 40.5835 76.253 40.222 76.6621C39.6692 77.2879 39.0868 77.9246 38.4748 78.5721C38.0957 78.9732 37.7053 79.3786 37.3035 79.7881C36.7855 80.299 36.2611 80.8039 35.7302 81.3027C35.7193 81.3128 35.7085 81.323 35.6977 81.3332C34.7184 82.2523 33.7172 83.1507 32.694 84.0285C31.1045 85.3921 29.5676 86.5363 28.0834 87.4611C28.0606 87.476 28.0378 87.4908 28.0151 87.5056C27.2031 88.032 26.4362 88.4533 25.7143 88.7693C25.7084 88.7719 25.7024 88.7745 25.6965 88.7771C25.6603 88.7929 25.6242 88.8084 25.5882 88.8236C25.4977 88.862 25.4078 88.8987 25.3187 88.9337C24.8968 89.0995 24.491 89.2277 24.1014 89.3182C22.5286 89.6834 21.546 89.0206 21.1534 87.3299C20.9799 86.5829 21.1076 85.9731 21.5366 85.5005C21.93 85.0208 22.3953 84.6154 22.9325 84.2843C22.9685 84.2621 23.0048 84.2402 23.0415 84.2187C23.7489 83.8067 24.4482 83.386 25.1392 82.9566C25.1723 82.9361 25.2053 82.9155 25.2383 82.895C25.262 82.8801 25.2858 82.8653 25.3096 82.8505C26.6949 81.9852 28.0472 81.085 29.3665 80.1498C30.0206 79.6861 30.6667 79.2138 31.3046 78.7329C31.7938 78.3641 32.2782 77.9903 32.7578 77.6114C33.1834 77.2688 33.6033 76.9197 34.0177 76.5641C34.0368 76.5478 34.0559 76.5314 34.0749 76.515C35.1892 75.5563 36.2632 74.5509 37.2968 73.4989C37.3177 73.4776 37.3386 73.4563 37.3595 73.435C37.5871 73.2026 37.8127 72.9679 38.0363 72.731C38.049 72.7176 38.0616 72.7042 38.0743 72.6907C38.2492 72.505 38.423 72.3179 38.5956 72.1293C39.3114 71.3473 40.0065 70.5414 40.6809 69.7115C40.7172 69.6669 40.7534 69.6222 40.7896 69.5774C40.8665 69.4821 40.9432 69.3866 41.0195 69.2907L22.0877 73.6869C21.3013 73.8695 20.5964 73.8674 19.9729 73.6807C19.3403 73.4546 18.9235 72.9091 18.7227 72.0441C18.6464 71.7157 18.6155 71.4178 18.6299 71.1504C18.6551 70.6812 18.8197 70.3058 19.1238 70.0241C19.4575 69.6808 19.872 69.4135 20.3672 69.2221C20.5669 69.1449 20.7798 69.0801 21.0058 69.0276L42.2967 64.0836L41.338 59.9552C40.7434 60.0933 40.1433 60.2402 39.5376 60.396C39.2965 60.4581 39.0546 60.5215 38.8118 60.5863C38.6562 60.6278 38.5002 60.6699 38.3439 60.7126C37.7283 60.8808 37.1316 60.9986 36.5538 61.0662C36.1807 61.1098 35.8155 61.1324 35.4582 61.1341C34.8211 61.1371 34.2364 61.0164 33.7041 60.7719C33.4755 60.667 33.2566 60.5392 33.0474 60.3886C32.7128 60.1126 32.4219 59.7323 32.1747 59.2478C31.9958 58.8972 31.8398 58.492 31.7067 58.0322C31.6865 57.9623 31.6668 57.891 31.6476 57.8186C31.6201 57.7149 31.5938 57.6086 31.5685 57.4998L28.0077 42.1656C27.4419 39.7289 28.0716 38.0481 29.8969 37.1231C30.3395 36.8988 30.8523 36.7189 31.4355 36.5835L34.6203 35.844C34.5698 35.3596 34.5091 34.8311 34.4382 34.2587C34.4144 34.0661 34.3894 33.8685 34.3632 33.666C34.34 33.3977 34.3312 33.1385 34.3367 32.8881C34.3378 32.8374 34.3395 32.7871 34.3418 32.7371C34.3457 32.6524 34.3513 32.5687 34.3586 32.486C34.3933 32.0929 34.4664 31.7237 34.5779 31.3784C34.7857 30.6672 35.3221 30.2111 36.1871 30.0102C36.8279 29.8614 37.4077 29.8601 37.9265 30.0062C37.9489 30.0125 37.9712 30.0191 37.9933 30.0259C38.5592 30.1431 38.9335 30.5949 39.1161 31.3813C39.144 31.5017 39.1668 31.6288 39.1843 31.7625C39.2227 32.0552 39.2361 32.3797 39.2245 32.7359C39.223 32.7822 39.2211 32.8291 39.2187 32.8765C39.216 32.9303 39.2128 32.9847 39.209 33.0398C39.2076 33.0602 39.2062 33.0806 39.2046 33.1012C39.2009 33.1507 39.1972 33.1998 39.1935 33.2482C39.1462 33.8594 39.0963 34.3822 39.0436 34.8168L44.4106 33.5705C44.5018 33.5494 44.5919 33.5296 44.6811 33.5111C45.2268 33.3982 45.7347 33.3362 46.2047 33.3253C46.4293 33.3201 46.6453 33.3265 46.8526 33.3446C47.394 33.3917 47.8764 33.5182 48.3 33.724C48.7469 33.9133 49.1342 34.2297 49.4621 34.6732C49.876 35.2333 50.1951 35.996 50.4192 36.9614L53.98 52.2956C54.0221 52.477 54.0577 52.6541 54.0867 52.8269C54.1001 52.9071 54.1122 52.9864 54.1228 53.0648C54.1742 53.4443 54.1925 53.8022 54.1777 54.1385C54.1548 54.6559 54.0534 55.1221 53.8735 55.5372C53.3894 56.6544 52.3367 57.4012 50.7155 57.7777L46.3511 58.7911L47.3098 62.9195L68.7777 57.9345C69.5641 57.7519 70.269 57.7539 70.8925 57.9406C71.2271 58.0408 71.5021 58.2444 71.7176 58.5513C71.9037 58.8162 72.0454 59.1582 72.1427 59.5772C72.3436 60.4422 72.2099 61.1156 71.7416 61.5973C71.2733 62.0789 70.646 62.4111 69.8596 62.5937L50.397 67.1131C50.6691 67.2648 50.9465 67.413 51.2295 67.5577C51.2579 67.5722 51.2863 67.5867 51.3148 67.6012C52.0443 67.9712 52.8095 68.3183 53.6105 68.6427C54.2216 68.8902 54.8536 69.1244 55.5063 69.3454C55.6789 69.4038 55.8528 69.4612 56.0282 69.5178C56.4945 69.668 56.971 69.8117 57.4577 69.9489C57.4901 69.9576 57.5224 69.9662 57.5547 69.9748C59.5174 70.4973 61.5031 70.9237 63.5119 71.254C63.822 71.3049 64.1326 71.3536 64.4438 71.4C64.4803 71.4055 64.5168 71.4109 64.5533 71.4163C64.8809 71.4645 65.2091 71.5103 65.5379 71.5535C66.3287 71.6463 67.1024 71.7256 67.8591 71.7915C67.8831 71.7936 67.907 71.7957 67.9309 71.7977C68.9459 71.8851 69.93 71.9481 70.8833 71.9869C71.1962 71.9996 71.5059 72.0097 71.8122 72.0172C71.8595 72.0183 71.9068 72.0194 71.9539 72.0205C72.3441 72.029 72.7289 72.0332 73.1083 72.0332C73.2341 72.032 73.359 72.0346 73.483 72.0409C74.0926 72.072 74.6803 72.194 75.2463 72.407C75.9575 72.6147 76.4136 73.1511 76.6144 74.0161C77.0344 75.8248 76.3991 76.9254 74.7084 77.318C74.4365 77.3812 74.1251 77.4237 73.7743 77.4457C73.637 77.4544 73.4937 77.4598 73.3444 77.4621C73.2839 77.4631 73.2224 77.4635 73.1598 77.4634C73.1428 77.4634 73.1258 77.4633 73.1086 77.4632C72.5921 77.4601 72.009 77.4223 71.3593 77.3498C71.1107 77.3287 70.8615 77.3052 70.6118 77.2794C69.4179 77.156 68.2116 76.9787 66.9927 76.7477C66.2322 76.6147 65.5579 76.4972 64.9697 76.395C64.9475 76.3912 64.9254 76.3873 64.9035 76.3835C64.4169 76.299 63.9906 76.2253 63.6246 76.1623C61.4627 75.7393 59.3174 75.1902 57.1887 74.515C56.8958 74.4221 56.6032 74.3268 56.3109 74.2292C56.2928 74.2231 56.2748 74.2171 56.2567 74.211C56.2172 74.1978 56.1778 74.1845 56.1384 74.1712C55.4656 73.9442 54.8034 73.6963 54.1516 73.4275C53.2776 73.0671 52.4224 72.6692 51.5861 72.2339C51.506 72.1922 51.426 72.1501 51.3463 72.1077ZM58.8684 82.268C59.0104 83.9359 58.8002 85.949 57.64 87.9089C56.021 90.6438 53.4291 91.8075 51.4518 92.2667C49.4499 92.7316 46.5993 92.805 43.9521 91.026C42.0705 89.7615 41.0181 88.0424 40.4263 86.4953C39.3905 87.4657 38.3323 88.4144 37.2518 89.3413C35.4648 90.8744 33.664 92.2262 31.8485 93.3627C29.9878 94.5719 27.9128 95.6194 25.6847 96.1367C23.7158 96.5939 20.8934 96.6673 18.2708 94.8985C15.7562 93.2026 14.7478 90.6921 14.3348 88.9133C13.7725 86.492 14.0454 83.4486 16.2199 80.9461C16.4839 80.632 16.7613 80.3329 17.0515 80.049C13.869 78.6678 12.42 75.8491 11.9041 73.6275C11.6074 72.35 11.4559 70.5537 11.9859 68.7171C10.2823 67.1208 9.49465 65.1251 9.13566 63.5792C8.33397 60.1268 9.78354 57.3166 11.0098 55.6965L11.0656 55.6226L11.1234 55.5503C12.0858 54.3464 13.1914 53.2685 14.3924 52.3011C14.9132 51.8706 15.4323 51.4583 15.9496 51.0661C15.909 51.0499 15.8684 51.0337 15.8277 51.0175L15.6649 50.9525L15.5055 50.8795C15.0587 50.6748 14.7051 50.5216 14.4345 50.4114C14.3007 50.357 14.1978 50.3174 14.1227 50.2898C14.0458 50.2616 14.0139 50.2518 14.0198 50.2536C13.0699 49.9599 12.1593 49.5814 11.2908 49.144L11.0072 49.0011L10.7377 48.8332C8.57952 47.4884 7.15507 45.4135 6.60246 43.0337C6.16574 41.153 6.04209 38.3856 7.71979 35.7658C9.37336 33.1836 11.8926 32.1328 13.708 31.7112C15.8465 31.2146 17.9593 31.6414 19.1018 31.9114C20.5652 32.2194 22.0077 32.6835 23.4212 33.2654C23.4543 33.2778 23.4874 33.2902 23.5204 33.3027C24.718 31.979 26.1523 31.0854 27.586 30.4886C27.6656 30.0979 27.766 29.7054 27.8894 29.3126C28.9834 25.7183 31.8814 23.8238 34.6037 23.1917C36.1267 22.838 37.9064 22.7425 39.7555 23.2492C41.9699 23.7977 43.4634 25.066 44.4433 26.4551C46.3243 26.2042 48.4758 26.2602 50.6011 27.0953C51.3575 26.0083 52.1668 24.9702 53.0334 24.0595C53.4652 23.5831 53.9998 23.0491 54.6303 22.5592C55.2378 22.0872 56.3734 21.3065 57.9496 20.9405C59.8473 20.4999 62.6379 20.3404 65.309 21.9634C68.0148 23.6075 69.154 26.1991 69.6081 28.1545C70.0306 29.9737 69.7373 31.5638 69.4909 32.4994C69.2226 33.5187 68.8202 34.4545 68.4272 35.2432L68.393 35.3118L68.3573 35.3797C67.6235 36.7751 66.7356 38.1542 65.7327 39.5142C66.4965 39.8148 67.2507 40.1399 67.9951 40.4896C69.2846 41.0622 70.5289 41.7074 71.6521 42.4488C72.2842 42.8491 73.0358 43.3892 73.7359 44.0972C74.4201 44.789 75.5163 46.1025 75.9707 48.0593C76.276 49.3745 76.4383 51.0967 75.9879 52.9052C77.768 54.4354 78.6126 56.4922 78.9613 57.9939C79.4589 60.1367 79.422 63.1605 77.4015 65.7433C77.433 65.7543 77.4646 65.7653 77.496 65.7765C80.1844 66.655 81.8946 68.5566 82.8187 70.6113C82.4901 70.8663 82.1937 71.1547 81.9297 71.4766C81.584 71.8574 81.434 72.3273 81.4795 72.8864C81.4905 73.0211 81.5128 73.1609 81.5465 73.306C81.8712 74.7046 82.5998 75.3997 83.7321 75.3914C83.6838 76.7428 83.361 78.2328 82.5153 79.6977C80.9142 82.4713 78.3103 83.6679 76.2917 84.1366C74.3806 84.5804 72.3659 84.5004 70.6769 84.317C69.0383 84.1747 67.3924 83.9464 65.74 83.6349C64.3397 83.3901 63.2398 83.199 62.4378 83.061L62.3589 83.0474L62.2802 83.032C61.1377 82.8084 60.0004 82.5537 58.8684 82.268ZM69.2581 50.8168C69.2877 50.4659 69.2524 50.0745 69.1521 49.6427C69.0608 49.2495 68.6275 48.8114 67.8524 48.3284C67.6041 48.1624 67.3347 47.9966 67.0442 47.831C66.9542 47.7797 66.8622 47.7284 66.7682 47.6772C66.4611 47.5099 66.1325 47.3428 65.7822 47.1759C65.5591 47.0696 65.3272 46.9634 65.0866 46.8573C64.8901 46.7644 64.6929 46.6737 64.4949 46.5851C64.4877 46.5819 64.4805 46.5786 64.4733 46.5754C63.6254 46.1967 62.7629 45.8566 61.8859 45.5551C61.8102 45.529 61.7343 45.5033 61.6584 45.4778C61.631 45.4681 61.6037 45.4585 61.5765 45.4489C61.5218 45.4296 61.4674 45.4106 61.4132 45.3918C61.118 45.2893 60.8302 45.1939 60.5499 45.1056C60.3593 45.0454 60.1721 44.9886 59.9884 44.9349C59.9203 44.915 59.8526 44.8956 59.7854 44.8766C59.6621 44.8417 59.5404 44.8084 59.4202 44.7765C59.1342 44.7006 58.8572 44.6332 58.5893 44.5744C58.4413 44.5359 58.3 44.5016 58.1656 44.4716C58.117 44.4608 58.0693 44.4505 58.0225 44.4408C57.536 44.3396 57.1456 44.2983 56.8513 44.3168C56.7622 44.3225 56.6819 44.3336 56.6104 44.3502C55.749 44.5502 55.1632 44.9173 54.853 45.4516C54.7917 45.5572 54.7411 45.6693 54.7013 45.788C54.5975 46.0976 54.567 46.4517 54.6098 46.8503C54.6267 47.0077 54.655 47.1721 54.6948 47.3435C54.808 47.8311 55.102 48.2394 55.5768 48.5684C55.7145 48.6638 55.8675 48.7526 56.0356 48.8347C56.5212 49.0543 56.9531 49.2468 57.3315 49.4124C57.3922 49.439 57.4515 49.4648 57.5094 49.49C57.6239 49.5397 57.733 49.5868 57.8367 49.6311C57.8837 49.6512 57.9297 49.6707 57.9746 49.6898C58.247 49.7922 58.801 50.0366 59.6366 50.4227C59.6395 50.4238 59.6425 50.425 59.6455 50.4261C59.7198 50.4551 59.7947 50.4844 59.8704 50.514C59.8996 50.5254 59.929 50.5369 59.9584 50.5484C60.1458 50.6218 60.3374 50.6969 60.5331 50.7739C60.6342 50.8137 60.7365 50.854 60.8398 50.8947C61.3373 51.0909 61.8601 51.2983 62.4084 51.517C62.4424 51.5305 62.4766 51.5442 62.5108 51.5578C62.6112 51.5979 62.7106 51.6373 62.8092 51.6763C62.8526 51.6934 62.8959 51.7105 62.9389 51.7274C63.1451 51.8084 63.3473 51.887 63.5455 51.9632C64.0746 52.1663 64.5756 52.3521 65.0487 52.5204C65.1014 52.5391 65.1537 52.5577 65.2057 52.576C65.2613 52.5956 65.3165 52.6149 65.3713 52.634C66.2581 52.8839 66.8391 52.9769 67.1144 52.913C67.2793 52.8747 67.4348 52.8305 67.5808 52.7803C68.6186 52.4241 69.1777 51.7696 69.2581 50.8168ZM53.3917 39.1584C53.8806 39.7557 54.6015 39.9705 55.5544 39.8027C55.632 39.789 55.7111 39.7728 55.7917 39.7541C56.2242 39.6537 56.8438 39.199 57.6505 38.3901C57.6739 38.3653 57.6973 38.3403 57.7207 38.3152C57.7737 38.2583 57.8267 38.2007 57.8798 38.1425C58.0892 37.9128 58.2992 37.673 58.5097 37.423C58.7107 37.1843 58.9123 36.9363 59.1143 36.6791C59.2107 36.5564 59.3072 36.4316 59.4038 36.3047C59.4589 36.2323 59.5141 36.1592 59.5693 36.0854C59.7343 35.8648 59.8996 35.6381 60.0653 35.4052C60.257 35.1461 60.441 34.8899 60.6173 34.6364C60.701 34.5161 60.783 34.3963 60.8632 34.2773C60.8659 34.2732 60.8686 34.2692 60.8713 34.2652C60.9144 34.2011 60.9571 34.1372 60.9992 34.0735C61.3563 33.5332 61.677 33.0064 61.9613 32.4929C61.9969 32.4287 62.0318 32.3647 62.0662 32.301C62.0987 32.2409 62.1306 32.181 62.162 32.1212C62.699 31.0435 62.9082 30.249 62.7895 29.7378C62.3878 28.0078 61.3023 27.3483 59.5329 27.7591C59.1791 27.8413 58.7227 28.1959 58.1639 28.8229C57.93 29.0649 57.689 29.3367 57.4408 29.6382C57.4156 29.6688 57.3904 29.6997 57.365 29.731C57.0338 30.1391 56.69 30.5997 56.3336 31.1127C56.2991 31.1621 56.2646 31.2115 56.2303 31.261C56.1653 31.3546 56.1005 31.4485 56.036 31.5425C55.9861 31.6152 55.9363 31.688 55.8868 31.761C55.8035 31.8834 55.7206 32.0062 55.6383 32.1293C55.6192 32.1578 55.6001 32.1863 55.5811 32.2149C55.4374 32.4302 55.2952 32.6464 55.1543 32.8634C54.9466 33.1834 54.7419 33.5053 54.5402 33.829C54.5097 33.8779 54.4795 33.9266 54.4498 33.975C54.2874 34.2388 54.1355 34.495 53.994 34.7436C53.968 34.7892 53.9424 34.8346 53.9171 34.8797C53.6299 35.3922 53.388 35.8716 53.1912 36.3177C53.0624 36.6099 52.964 36.8658 52.8961 37.0854C52.8251 37.3151 52.7875 37.5052 52.7832 37.6556C52.7812 37.7251 52.7863 37.786 52.7985 37.8386C52.8321 37.9832 52.8704 38.1201 52.9134 38.2493C53.0011 38.5126 53.1084 38.7435 53.2354 38.9422C53.2845 39.0191 53.3366 39.0912 53.3917 39.1584ZM23.954 41.3044C23.7257 41.1534 23.4875 41.0076 23.2394 40.8668C23.2073 40.8486 23.175 40.8305 23.1425 40.8124C22.8339 40.6408 22.5103 40.4769 22.1716 40.3206C21.7587 40.1302 21.3235 39.9513 20.8659 39.7838C20.855 39.7792 20.8441 39.7746 20.8331 39.7701C20.8224 39.7657 20.8118 39.7612 20.8011 39.7568C20.7453 39.7337 20.6897 39.7109 20.6341 39.6884C20.5515 39.655 20.4692 39.6222 20.3871 39.5902C20.3027 39.5573 20.2186 39.5251 20.1349 39.4936C19.251 39.1618 18.399 38.9121 17.5788 38.7445C17.4088 38.7037 17.2463 38.6676 17.0914 38.6362C16.9275 38.6031 16.7721 38.5752 16.6252 38.5526C16.051 38.4642 15.6063 38.4566 15.2913 38.5298C13.6793 38.9041 13.0558 39.8777 13.421 41.4504C13.5671 42.0795 13.9066 42.5601 14.4396 42.8921C15.0027 43.1758 15.5521 43.4004 16.0878 43.5661C16.1833 43.5956 16.2865 43.6299 16.3973 43.669C16.4285 43.68 16.4602 43.6914 16.4926 43.7031C16.5149 43.7112 16.5375 43.7195 16.5604 43.7279C17.0492 43.9086 17.6697 44.1712 18.4218 44.5159C18.4286 44.5186 18.4354 44.5213 18.4422 44.5241C18.5136 44.5525 18.5848 44.5809 18.6557 44.6091C18.7112 44.6311 18.7666 44.6531 18.8218 44.675C18.8959 44.7043 18.9698 44.7336 19.0434 44.7626C19.7634 45.0469 20.4597 45.3164 21.1325 45.5712C21.1765 45.5879 21.2204 45.6045 21.2642 45.621C21.3189 45.6417 21.3733 45.6622 21.4276 45.6826C21.5058 45.7101 21.582 45.7363 21.6564 45.7611C22.2193 45.9485 22.676 46.0578 23.0264 46.0891C23.2184 46.1062 23.3785 46.0998 23.5067 46.0701C23.988 45.9583 24.3846 45.7923 24.6963 45.5721C24.7385 45.5423 24.7792 45.5115 24.8183 45.4797C25.5047 44.9215 25.712 44.0569 25.4401 42.8862C25.4311 42.8474 25.42 42.8086 25.4066 42.7696C25.2441 42.295 24.7599 41.8066 23.954 41.3044ZM18.8165 57.726C18.4872 57.99 18.1766 58.2584 17.8847 58.5314C17.7314 58.6748 17.5833 58.8194 17.4403 58.9652C17.4157 58.9903 17.3913 59.0154 17.367 59.0405C17.0883 59.3292 16.8297 59.6227 16.5913 59.921C16.0205 60.6751 15.8082 61.3667 15.9542 61.9958C16.0795 62.5353 16.2661 62.9739 16.514 63.3115C17.0792 64.0812 17.963 64.3265 19.1655 64.0472C19.3166 64.0121 19.5219 63.9145 19.7813 63.7544C19.9944 63.6228 20.2441 63.449 20.5304 63.233C20.5659 63.2074 20.6015 63.1814 20.6374 63.1552C20.6755 63.1273 20.7139 63.0991 20.7526 63.0706C21.2016 62.7394 21.6844 62.3653 22.201 61.9484C22.2236 61.9302 22.2462 61.9119 22.2689 61.8936C22.4398 61.7552 22.6143 61.6122 22.7926 61.4646C22.8129 61.4472 22.8332 61.4297 22.8536 61.4123C22.8717 61.3968 22.8898 61.3812 22.9079 61.3657C23.4023 60.9409 23.8887 60.5111 24.3672 60.0764C24.5391 59.9203 24.7099 59.7635 24.8796 59.6061C25.0247 59.4716 25.1691 59.3366 25.3127 59.2011C25.3837 59.1364 25.4539 59.0724 25.5232 59.009C25.575 58.9616 25.6263 58.9145 25.6771 58.8679C25.817 58.7394 25.9532 58.6137 26.0858 58.4906C26.1412 58.4391 26.1959 58.3882 26.25 58.3377C26.4694 58.1331 26.6784 57.936 26.877 57.7465C26.9587 57.6686 27.0387 57.592 27.1169 57.5166C27.2158 57.4213 27.3118 57.3282 27.4051 57.237C27.4392 57.2037 27.473 57.1706 27.5063 57.1378C27.6831 56.9589 27.8426 56.7951 27.985 56.6465C28.0205 56.6094 28.0549 56.5733 28.0883 56.5381C28.3803 56.2302 28.5904 55.9944 28.7187 55.8308C28.729 55.8176 28.7387 55.805 28.748 55.7928C28.8961 55.5808 28.9913 55.3434 29.0337 55.0808C29.0803 54.7919 29.063 54.4725 28.9817 54.1224C28.791 53.3011 28.4427 52.7483 27.9368 52.4637C27.6816 52.3202 27.3862 52.2449 27.0507 52.238C26.8096 52.2331 26.5479 52.2634 26.2654 52.329C26.0398 52.3814 25.7274 52.5486 25.328 52.8307C25.3096 52.8437 25.291 52.8569 25.2723 52.8704C25.2091 52.9189 25.1456 52.968 25.0816 53.0178C25.0338 53.055 24.9857 53.0926 24.9374 53.1306C24.6886 53.3261 24.4338 53.5313 24.173 53.7461C24.1549 53.761 24.1368 53.776 24.1186 53.791C24.1012 53.8053 24.0838 53.8197 24.0664 53.8341C23.8965 53.9562 23.744 54.0676 23.6087 54.1684C23.4046 54.3206 23.2398 54.4486 23.1144 54.5525C22.8943 54.7185 22.5529 54.9625 22.0901 55.2846C22.0225 55.3316 21.9522 55.3804 21.8794 55.4308C21.8548 55.4478 21.8299 55.465 21.8047 55.4824C21.6789 55.5693 21.5457 55.661 21.4051 55.7574C20.7458 56.2096 20.0603 56.7212 19.3486 57.2922C19.3461 57.2942 19.3436 57.2962 19.3411 57.2981C19.3188 57.316 19.2965 57.334 19.2742 57.352C19.1228 57.474 18.9703 57.5987 18.8165 57.726ZM47.9243 54.3234C48.5826 54.1705 49.0053 53.8652 49.1922 53.4074C49.329 53.0723 49.3396 52.6554 49.2238 52.1569L48.1008 47.3207L34.6539 50.4432L35.7769 55.2794C35.8306 55.5107 35.901 55.7142 35.988 55.8899C36.0286 55.972 36.0729 56.048 36.1208 56.118C36.19 56.2192 36.2669 56.3077 36.3514 56.3836C36.353 56.3851 36.3547 56.3865 36.3563 56.388C36.5953 56.6005 36.8947 56.7123 37.2544 56.7235C37.4509 56.7296 37.6655 56.7056 37.8981 56.6516L47.9243 54.3234ZM47.2517 43.6641L46.2109 39.1818C46.185 39.0705 46.1553 38.9656 46.1217 38.8672C46.0781 38.7392 46.028 38.6222 45.9714 38.5159C45.9208 38.4212 45.8651 38.3351 45.8043 38.2577C45.7507 38.1895 45.6931 38.128 45.6314 38.0732C45.5658 38.0148 45.4956 37.964 45.4208 37.9209C45.0747 37.721 44.631 37.6839 44.0896 37.8096L34.0634 40.1378C33.4051 40.2907 32.9825 40.596 32.7956 41.0538C32.6587 41.389 32.6482 41.8058 32.7639 42.3043L33.8048 46.7866L47.2517 43.6641Z" fill="white"/>
<path d="M133 55.7772V55.7772C133 44.9242 145.514 36.1261 160.951 36.1261H179.318V55.7772H133Z" fill="white"/>
<path d="M133 75.9898V55.7772H179.318V75.9898H133Z" fill="white"/>
<path d="M196.088 5.43013C205.35 5.43011 212.859 10.7089 212.859 17.2207L212.859 75.9999L179.318 76L179.318 17.2208C179.318 10.709 186.826 5.43016 196.088 5.43013V5.43013Z" fill="white"/>
<path d="M179.318 3L204.216 15.9136H179.318L179.318 3Z" fill="white"/>
<path d="M213 3.18425L188.103 16.0978H213L213 3.18425Z" fill="white"/>
<path d="M145 57.1623V57.1623C145 47.0527 154.999 38.8572 167.334 38.8572H182.01V57.1623H145Z" fill="#FFAAA5"/>
<path d="M145 75.9905V57.1623H182.01V75.9905H145Z" fill="#FFAAA5"/>
<path d="M195.41 10.2637C202.811 10.2637 208.811 15.1809 208.811 21.2467L208.811 75.9999L182.01 76L182.01 21.2468C182.01 15.181 188.01 10.2637 195.41 10.2637V10.2637Z" fill="#FFAAA5"/>
<path d="M182.01 8L201.904 20.0291H182.01L182.01 8Z" fill="#FFAAA5"/>
<path d="M208.923 8.17162L189.029 20.2007H208.923L208.923 8.17162Z" fill="#FFAAA5"/>
<path d="M167.972 62.3924V62.3924C167.972 52.2827 177.536 44.0873 189.334 44.0873H211.307V62.3924H167.972Z" fill="white"/>
<path d="M167.972 75.9905V62.3924H211.307V75.9905H167.972Z" fill="white"/>
<path d="M225.095 15.4937C232.711 15.4937 238.884 20.411 238.884 26.4768L238.884 53.8433C238.884 65.9749 226.538 75.8095 211.307 75.8095V75.8095L211.307 26.4768C211.307 20.4111 217.48 15.4938 225.095 15.4937V15.4937Z" fill="white"/>
<path d="M211.307 13.23L231.777 25.2591H211.307L211.307 13.23Z" fill="white"/>
<path d="M239 13.4017L218.529 25.4308H239L239 13.4017Z" fill="white"/>
<path d="M171.8 63.3662V63.3662C171.8 53.8841 181.12 46.1973 192.615 46.1973H214.025V63.3662H171.8Z" fill="#FFB992"/>
<path d="M171.8 75.9905V63.3662H214.025V75.9905H171.8Z" fill="#FFB992"/>
<path d="M225.02 19.5268C231.581 19.5268 236.9 24.1163 236.9 29.7777L236.9 55.3198C236.9 66.6426 226.262 75.8215 213.14 75.8216V75.8216L213.14 29.7777C213.14 24.1163 218.458 19.5269 225.02 19.5268V19.5268Z" fill="#FFB992"/>
<path d="M213.14 17.4141L230.777 28.6412H213.14L213.14 17.4141Z" fill="#FFB992"/>
<path d="M237 17.5742L219.363 28.8014H237L237 17.5742Z" fill="#FFB992"/>
</svg>
